<svg xmlns="http://www.w3.org/2000/svg" width="720" height="400" viewBox="0 0 720 400" xmlns:c2pa="http://c2pa.org/manifest"><metadata><c2pa:manifest>AAAWgmp1bWIAAAAeanVtZGMycGEAEQAQgAAAqgA4m3EDYzJwYQAAABZcanVtYgAAAEdqdW1kYzJtYQARABCAAACqADibcQN1cm46YzJwYTo3ODIzM2JjYy1hZDEzLTRhYTEtOTYyNC1mZmRhZGZjNzUzNTgAAAADl2p1bWIAAAApanVtZGMyYXMAEQAQgAAAqgA4m3EDYzJwYS5hc3NlcnRpb25zAAAAALxqdW1iAAAARGp1bWRjYm9yABEAEIAAAKoAOJtxE2MycGEuaW5ncmVkaWVudC52MwAAAAAYYzJzaM2oE/YlxUCXUfeMIvJfh1oAAABwY2JvcqNpZGM6Zm9ybWF0bWltYWdlL3N2Zyt4bWxqaW5zdGFuY2VJRHgseG1wOmlpZDoxMTBhMTY4NC1jODQxLTQyYmItOWMwYi01YTNkNTE5NWM5OTdscmVsYXRpb25zaGlwaHBhcmVudE9mAAAB4mp1bWIAAABBanVtZGNib3IAEQAQgAAAqgA4m3ETYzJwYS5hY3Rpb25zLnYyAAAAABhjMnNoMEtq/Dv3IPthb4qP+584dgAAAZljYm9yomdhY3Rpb25zgqJmYWN0aW9ua2MycGEub3BlbmVkanBhcmFtZXRlcnOha2luZ3JlZGllbnRzgaJjdXJseC1zZWxmI2p1bWJmPWMycGEuYXNzZXJ0aW9ucy9jMnBhLmluZ3JlZGllbnQudjNkaGFzaFggtTukj/K5jKv+oMI1Jrk9K77kyXdXtjXRvO0BDfeHXVGkZmFjdGlvbngdY29tLmFudGhyb3BpYy5jbGF1ZGUucHJvdmlkZWRqcGFyYW1ldGVyc6F4H2NvbS5hbnRocm9waWMub3JpZ2luLWNvbmZpZGVuY2VndW5rbm93bmtkZXNjcmlwdGlvbnhmQ2xhdWRlIHByb3ZpZGVkIHRoaXMgZmlsZSBhdCB0aGUgcmVxdWVzdCBvZiBhIHVzZXIgYW5kIG1heSBoYXZlIGNyZWF0ZWQgb3IgbW9kaWZpZWQgdGhlIGZpbGUgY29udGVudHMubXNvZnR3YXJlQWdlbnShZG5hbWVmQ2xhdWRlcmFsbEFjdGlvbnNJbmNsdWRlZPUAAADIanVtYgAAAEBqdW1kY2JvcgARABCAAACqADibcRNjMnBhLmhhc2guZGF0YQAAAAAYYzJzaGKhU/1GSAKRSeEkHrGu4ssAAACAY2JvcqVjYWxnZnNoYTI1NmNwYWRNAAAAAAAAAAAAAAAAAGRoYXNoWCBlimCcfCONTbBvS094TvOBWHFGW8QoFRSxJe4xIQGpfmRuYW1lbmp1bWJmIG1hbmlmZXN0amV4Y2x1c2lvbnOBomVzdGFydBiWZmxlbmd0aBkeBAAAAj5qdW1iAAAAJ2p1bWRjMmNsABEAEIAAAKoAOJtxA2MycGEuY2xhaW0udjIAAAACD2Nib3KlY2FsZ2ZzaGEyNTZpc2lnbmF0dXJleE1zZWxmI2p1bWJmPS9jMnBhL3VybjpjMnBhOjc4MjMzYmNjLWFkMTMtNGFhMS05NjI0LWZmZGFkZmM3NTM1OC9jMnBhLnNpZ25hdHVyZWppbnN0YW5jZUlEeCx4bXA6aWlkOmQwOWZhYzAzLTlkM2MtNDk2YS04ODVhLTJmMWZkNTQxNjY2NXJjcmVhdGVkX2Fzc2VydGlvbnODomN1cmx4LXNlbGYjanVtYmY9YzJwYS5hc3NlcnRpb25zL2MycGEuaW5ncmVkaWVudC52M2RoYXNoWCC1O6SP8rmMq/6gwjUmuT0rvuTJd1e2NdG87QEN94ddUaJjdXJseCpzZWxmI2p1bWJmPWMycGEuYXNzZXJ0aW9ucy9jMnBhLmFjdGlvbnMudjJkaGFzaFggCkr9PS/rmon2LgxNqNmQXkBx8FmsH1U7MnSH544ftXGiY3VybHgpc2VsZiNqdW1iZj1jMnBhLmFzc2VydGlvbnMvYzJwYS5oYXNoLmRhdGFkaGFzaFggckEPs5aXeG8TYmxqbYgc4f2EJ+zTMuOhdqxGsA6HSH90Y2xhaW1fZ2VuZXJhdG9yX2luZm+jZG5hbWVvQW50aHJvcGljIEZpbGVzZ3ZlcnNpb25lMS4wLjBrc3BlY1ZlcnNpb25lMi40LjAAABA4anVtYgAAAChqdW1kYzJjcwARABCAAACqADibcQNjMnBhLnNpZ25hdHVyZQAAABAIY2JvctKEWQISogEmGCFZAgowggIGMIIBjaADAgECAhRA5aAK7sI50L64g/oGQgU9Z1UTADAKBggqhkjOPQQDAzBJMRcwFQYDVQQKEw5BbnRocm9waWMsIFBCQzEuMCwGA1UEAxMlQW50aHJvcGljIENvbnRlbnQgQ3JlZGVudGlhbHMgUm9vdCBDQTAeFw0yNjA4MDcxODQzNTZaFw0yODA4MDYxOTQzNTZaMEQxFzAVBgNVBAoTDkFudGhyb3BpYywgUEJDMSkwJwYDVQQDEyBBbnRocm9waWMgQ2xhdWRlIENvbnRlbnQgU2lnbmluZzBZMBMGByqGSM49AgEGCCqGSM49AwEHA0IABJh6CmvLUBgFFNU0vUKlOVtE6djd17L5SuwX0LemFisBM3dkd/3cyjxFA3Qo5S46fX0/ihY0VZ7mfb9KF703t5OjWDBWMA4GA1UdDwEB/wQEAwIHgDAVBgNVHSUEDjAMBgorBgEEAYPoXgIBMAwGA1UdEwEB/wQCMAAwHwYDVR0jBBgwFoAUzlHiBIFOZFsj+OPEz5o+nMHXXMIwCgYIKoZIzj0EAwMDZwAwZAIwMXMdFJ4BetLLVY7ORuE9noqbbAZOZn/aArXyTwFAZfKrPzxF2vPoJNf1+UCdg1XGAjBwX1zd9WGqYkqmL5SFqw1QySjr1zJfpJM9+1rdDwSPLMOPOjKuiXjoU/pUUeG9RwmhY3BhZFkNngAAAAAAAAAAAAAAAAAAAAAAAAAAAAAAAAAAAAAAAAAAAAAAAAAAAAAAAAAAAAAAAAAAAAAAAAAAAAAAAAAAAAAAAAAAAAAAAAAAAAAAAAAAAAAAAAAAAAAAAAAAAAAAAAAAAAAAAAAAAAAAAAAAAAAAAAAAAAAAAAAAAAAAAAAAAAAAAAAAAAAAAAAAAAAAAAAAAAAAAAAAAAAAAAAAAAAAAAAAAAAAAAAAAAAAAAAAAAAAAAAAAAAAAAAAAAAAAAAAAAAAAAAAAAAAAAAAAAAAAAAAAAAAAAAAAAAAAAAAAAAAAAAAAAAAAAAAAAAAAAAAAAAAAAAAAAAAAAAAAAAAAAAAAAAAAAAAAAAAAAAAAAAAAAAAAAAAAAAAAAAAAAAAAAAAAAAAAAAAAAAAAAAAAAAAAAAAAAAAAAAAAAAAAAAAAAAAAAAAAAAAAAAAAAAAAAAAAAAAAAAAAAAAAAAAAAAAAAAAAAAAAAAAAAAAAAAAAAAAAAAAAAAAAAAAAAAAAAAAAAAAAAAAAAAAAAAAAAAAAAAAAAAAAAAAAAAAAAAAAAAAAAAAAAAAAAAAAAAAAAAAAAAAAAAAAAAAAAAAAAAAAAAAAAAAAAAAAAAAAAAAAAAAAAAAAAAAAAAAAAAAAAAAAAAAAAAAAAAAAAAAAAAAAAAAAAAAAAAAAAAAAAAAAAAAAAAAAAAAAAAAAAAAAAAAAAAAAAAAAAAAAAAAAAAAAAAAAAAAAAAAAAAAAAAAAAAAAAAAAAAAAAAAAAAAAAAAAAAAAAAAAAAAAAAAAAAAAAAAAAAAAAAAAAAAAAAAAAAAAAAAAAAAAAAAAAAAAAAAAAAAAAAAAAAAAAAAAAAAAAAAAAAAAAAAAAAAAAAAAAAAAAAAAAAAAAAAAAAAAAAAAAAAAAAAAAAAAAAAAAAAAAAAAAAAAAAAAAAAAAAAAAAAAAAAAAAAAAAAAAAAAAAAAAAAAAAAAAAAAAAAAAAAAAAAAAAAAAAAAAAAAAAAAAAAAAAAAAAAAAAAAAAAAAAAAAAAAAAAAAAAAAAAAAAAAAAAAAAAAAAAAAAAAAAAAAAAAAAAAAAAAAAAAAAAAAAAAAAAAAAAAAAAAAAAAAAAAAAAAAAAAAAAAAAAAAAAAAAAAAAAAAAAAAAAAAAAAAAAAAAAAAAAAAAAAAAAAAAAAAAAAAAAAAAAAAAAAAAAAAAAAAAAAAAAAAAAAAAAAAAAAAAAAAAAAAAAAAAAAAAAAAAAAAAAAAAAAAAAAAAAAAAAAAAAAAAAAAAAAAAAAAAAAAAAAAAAAAAAAAAAAAAAAAAAAAAAAAAAAAAAAAAAAAAAAAAAAAAAAAAAAAAAAAAAAAAAAAAAAAAAAAAAAAAAAAAAAAAAAAAAAAAAAAAAAAAAAAAAAAAAAAAAAAAAAAAAAAAAAAAAAAAAAAAAAAAAAAAAAAAAAAAAAAAAAAAAAAAAAAAAAAAAAAAAAAAAAAAAAAAAAAAAAAAAAAAAAAAAAAAAAAAAAAAAAAAAAAAAAAAAAAAAAAAAAAAAAAAAAAAAAAAAAAAAAAAAAAAAAAAAAAAAAAAAAAAAAAAAAAAAAAAAAAAAAAAAAAAAAAAAAAAAAAAAAAAAAAAAAAAAAAAAAAAAAAAAAAAAAAAAAAAAAAAAAAAAAAAAAAAAAAAAAAAAAAAAAAAAAAAAAAAAAAAAAAAAAAAAAAAAAAAAAAAAAAAAAAAAAAAAAAAAAAAAAAAAAAAAAAAAAAAAAAAAAAAAAAAAAAAAAAAAAAAAAAAAAAAAAAAAAAAAAAAAAAAAAAAAAAAAAAAAAAAAAAAAAAAAAAAAAAAAAAAAAAAAAAAAAAAAAAAAAAAAAAAAAAAAAAAAAAAAAAAAAAAAAAAAAAAAAAAAAAAAAAAAAAAAAAAAAAAAAAAAAAAAAAAAAAAAAAAAAAAAAAAAAAAAAAAAAAAAAAAAAAAAAAAAAAAAAAAAAAAAAAAAAAAAAAAAAAAAAAAAAAAAAAAAAAAAAAAAAAAAAAAAAAAAAAAAAAAAAAAAAAAAAAAAAAAAAAAAAAAAAAAAAAAAAAAAAAAAAAAAAAAAAAAAAAAAAAAAAAAAAAAAAAAAAAAAAAAAAAAAAAAAAAAAAAAAAAAAAAAAAAAAAAAAAAAAAAAAAAAAAAAAAAAAAAAAAAAAAAAAAAAAAAAAAAAAAAAAAAAAAAAAAAAAAAAAAAAAAAAAAAAAAAAAAAAAAAAAAAAAAAAAAAAAAAAAAAAAAAAAAAAAAAAAAAAAAAAAAAAAAAAAAAAAAAAAAAAAAAAAAAAAAAAAAAAAAAAAAAAAAAAAAAAAAAAAAAAAAAAAAAAAAAAAAAAAAAAAAAAAAAAAAAAAAAAAAAAAAAAAAAAAAAAAAAAAAAAAAAAAAAAAAAAAAAAAAAAAAAAAAAAAAAAAAAAAAAAAAAAAAAAAAAAAAAAAAAAAAAAAAAAAAAAAAAAAAAAAAAAAAAAAAAAAAAAAAAAAAAAAAAAAAAAAAAAAAAAAAAAAAAAAAAAAAAAAAAAAAAAAAAAAAAAAAAAAAAAAAAAAAAAAAAAAAAAAAAAAAAAAAAAAAAAAAAAAAAAAAAAAAAAAAAAAAAAAAAAAAAAAAAAAAAAAAAAAAAAAAAAAAAAAAAAAAAAAAAAAAAAAAAAAAAAAAAAAAAAAAAAAAAAAAAAAAAAAAAAAAAAAAAAAAAAAAAAAAAAAAAAAAAAAAAAAAAAAAAAAAAAAAAAAAAAAAAAAAAAAAAAAAAAAAAAAAAAAAAAAAAAAAAAAAAAAAAAAAAAAAAAAAAAAAAAAAAAAAAAAAAAAAAAAAAAAAAAAAAAAAAAAAAAAAAAAAAAAAAAAAAAAAAAAAAAAAAAAAAAAAAAAAAAAAAAAAAAAAAAAAAAAAAAAAAAAAAAAAAAAAAAAAAAAAAAAAAAAAAAAAAAAAAAAAAAAAAAAAAAAAAAAAAAAAAAAAAAAAAAAAAAAAAAAAAAAAAAAAAAAAAAAAAAAAAAAAAAAAAAAAAAAAAAAAAAAAAAAAAAAAAAAAAAAAAAAAAAAAAAAAAAAAAAAAAAAAAAAAAAAAAAAAAAAAAAAAAAAAAAAAAAAAAAAAAAAAAAAAAAAAAAAAAAAAAAAAAAAAAAAAAAAAAAAAAAAAAAAAAAAAAAAAAAAAAAAAAAAAAAAAAAAAAAAAAAAAAAAAAAAAAAAAAAAAAAAAAAAAAAAAAAAAAAAAAAAAAAAAAAAAAAAAAAAAAAAAAAAAAAAAAAAAAAAAAAAAAAAAAAAAAAAAAAAAAAAAAAAAAAAAAAAAAAAAAAAAAAAAAAAAAAAAAAAAAAAAAAAAAAAAAAAAAAAAAAAAAAAAAAAAAAAAAAAAAAAAAAAAAAAAAAAAAAAAAAAAAAAAAAAAAAAAAAAAAAAAAAAAAAAAAAAAAAAAAAAAAAAAAAAAAAAAAAAAAAAAAAAAAAAAAAAAAAAAAAAAAAAAAAAAAAAAAAAAAAAAAAAAAAAAAAAAAAAAAAAAAAAAAAAAAAAAAAAAAAAAAAAAAAAAAAAAAAAAAAAAAAAAAAAAAAAAAAAAAAAAAAAAAAAAAAAAAAAAAAAAAAAAAAAAAAAAAAAAAAAAAAAAAAAAAAAAAAAAAAAAAAAAAAAAAAAAAAAAAAAAAAAAAAAAAAAAAAAAAAAAAAAAAAAAAAAAAAAAAAAAAAAAAAAAAAAAAAAAAAAAAAAAAAAAAAAAAAAAAAAAAAAAAAAAAAAAAAAAAAAAAAAAAAAAAAAAAAAAAAAAAAAAAAAAAAAAAAAAAAAAAAAAAAAAAAAAAAAAAAAAAAAAAAAAAAAAAAAAAAAAAAAAAAAAAAAAAAAAAAAAAAAAAAAAAAAAAAAAAAAAAAAAAAAAAAAAAAAAAAAAAAAAAAAAAAAAAAAAAAAAAAAAAAAAAAAAAAAAAAAAAAAAAAAAAAAAAAAAAAAAAAAAAAAAAAAAAAAAAAAAAAAAAAAAAAAAAAAAAAAAAAAAAAAAAAAAAAAAAAAAAAAAAAAAAAAAAAAAAAAAAAAAAAAAAAAAAAAAAAAAAAAAAAAAAAAAAAAAAAAAAAAAAAAAAAAAAAAAAAAAAAAAAAAAAAAAAAAAAAAAAAAAAAAAAAAAAAAAAAAAAAAAAAAAAAAAAAAAAAAAAAAAAAAAAAAAAAAAAAAAAAAAAAAAAAAAAAAAAAAAAAAAAAAAAAAAAAAAAAAAAAAAAAAAAAAAAAAAAAAAAAAAAAAAAAAAAAAAAAAAAAAAAAAAAAAAAAAAAAAAAAAAAAAAAAAAAAAAAAAAAAAAAAAAAAAAAAAAAAAAAAAAAAAAAAAAAAAAAAAAAAAAAAAAAAAAAAAAAAAAAAAAAAAAAAAAAAAAAAAAAAAAAAAAAAAAAAAAAAAAAAAAAAAAAAAAAAAAAAAAAAAAAAAAAAAAAAAAAAAAAAAAAAAAAAAAAAAAAAAAAAAAAAAAAAAAAAAAAAAAAAAAAAAAAAAAAAAAAAAAAAAAAAAAAAAAAAAAAAAAAAAAAAAAAAAAAAAAAAAAAAAAAAAAAAAAAAAAAAAAAAAAAAAAAAAAAAAAAAAAAAAAAAAAAAAAAAAAAAAAAAAAAAAAAAAAAAAAAAAAAAAAAAAAAAAAAAAAAAAAAAAAAAAAAAAAAAAAAAAAAAAAAAAAPZYQALIbP8nQX4cX9VtkQtSOpXaiGEzSxz8vlwdXulGD8BsC0rjpFLYCz82M3YVLO4q5zxBPRMP153WW8RS+HG/hKs=</c2pa:manifest></metadata>
  <!-- transparent background -->
  <style>
    text { font-family: ui-sans-serif, -apple-system, 'Segoe UI', Helvetica, Arial, sans-serif; fill: #8A8378; }
    .title { font-size: 15px; fill: #C96442; font-weight: 500; letter-spacing: 0.06em; }
    .formula { font-family: Georgia, 'Times New Roman', serif; font-style: italic; font-size: 13px; fill: #8A8378; }
    .tick { font-size: 11px; }
    .small { font-size: 9.5px; }
    .label { font-size: 12px; fill: #8A8378; }
    .axis { stroke: #C9C2B6; stroke-width: 1; }
    .bound { stroke: #DDD6C9; stroke-width: 1; stroke-dasharray: 3 5; }
    .cell { fill: #F1ECE3; stroke: #DDD6C9; stroke-width: 1; }
    .win { fill: none; stroke: #C96442; stroke-width: 2; }
    .accent { fill: #C96442; }
  </style>

  <g opacity="0"><animate attributeName="opacity" from="0" to="1" dur="0.8s" begin="0s" fill="freeze"/>
    <text x="80" y="30" class="title">Two encoders, one table</text>
    <text x="80" y="50" class="formula">S<tspan font-size="9" dy="3">ij</tspan><tspan dy="-3"> = image</tspan><tspan font-size="9" dy="3">i</tspan><tspan dy="-3"> · caption</tspan><tspan font-size="9" dy="3">j</tspan></text>
  </g>
  <g opacity="0"><animate attributeName="opacity" from="0" to="1" dur="0.7s" begin="0.3s" fill="freeze"/>
    <text x="80" y="104" class="tick">a brown dog</text><text x="80" y="120" class="tick">a sunny beach</text><text x="80" y="136" class="tick">a pepperoni pizza</text><text x="80" y="152" class="tick">a snowy mountain</text>
    <rect x="250" y="92" width="84" height="64" rx="6" fill="#F1ECE3" stroke="#C9C2B6"/>
    <text x="292.0" y="121" class="label" text-anchor="middle">text</text>
    <text x="292.0" y="137" class="label" text-anchor="middle">encoder</text>
    <line x1="200" y1="124" x2="244" y2="124" class="axis"/>
    <path d="M 238 120 L 244 124 L 238 128" fill="none" stroke="#C9C2B6"/>
    <line x1="340" y1="124" x2="460" y2="124" class="axis"/>
    <path d="M 454 120 L 460 124 L 454 128" fill="none" stroke="#C9C2B6"/>
  </g>
  <g opacity="0"><animate attributeName="opacity" from="0" to="1" dur="0.7s" begin="0.3s" fill="freeze"/>
    <rect x="84" y="192" width="36" height="36" rx="3" fill="#F1ECE3" stroke="#DDD6C9"/><ellipse cx="95" cy="209" rx="4" ry="8" fill="#8A5433" transform="rotate(15 95 209)"/><ellipse cx="109" cy="209" rx="4" ry="8" fill="#8A5433" transform="rotate(-15 109 209)"/><circle cx="102" cy="210" r="10" fill="#B07446"/><ellipse cx="102" cy="215" rx="5" ry="4" fill="#D9B08C"/><circle cx="98.5" cy="207.5" r="1.3" fill="#3E2A1E"/><circle cx="105.5" cy="207.5" r="1.3" fill="#3E2A1E"/><ellipse cx="102" cy="213" rx="2" ry="1.5" fill="#3E2A1E"/><rect x="84" y="240" width="36" height="36" rx="3" fill="#F1ECE3" stroke="#DDD6C9"/><circle cx="110" cy="250" r="5" fill="#E9C3A8"/><path d="M 84 262 Q 93 259 102 262 T 120 262 L 120 268 L 84 268 Z" fill="#AFC6CC"/><rect x="84" y="268" width="36" height="8" fill="#E3D2B0"/><rect x="84" y="288" width="36" height="36" rx="3" fill="#F1ECE3" stroke="#DDD6C9"/><circle cx="102" cy="306" r="13" fill="#E3B26E"/><circle cx="102" cy="306" r="10.5" fill="#EAC98A"/><circle cx="98" cy="302" r="2.4" fill="#C0553C"/><circle cx="106" cy="303" r="2.4" fill="#C0553C"/><circle cx="102" cy="309" r="2.4" fill="#C0553C"/><circle cx="97" cy="310" r="2.4" fill="#C0553C"/><circle cx="107" cy="311" r="2.4" fill="#C0553C"/><rect x="84" y="336" width="36" height="36" rx="3" fill="#F1ECE3" stroke="#DDD6C9"/><path d="M 87 368 L 101 346 L 115 368 Z" fill="#A9A298"/><path d="M 96.5 353 L 101 346 L 105.5 353 L 103 352 L 101 354 L 99 352 Z" fill="#FFFFFF"/><rect x="84" y="368" width="36" height="4" fill="#C9CFA6"/>
    <rect x="250" y="250" width="84" height="64" rx="6" fill="#F1ECE3" stroke="#C9C2B6"/>
    <text x="292.0" y="279" class="label" text-anchor="middle">image</text>
    <text x="292.0" y="295" class="label" text-anchor="middle">encoder</text>
    <path d="M 126 210 C 180 210 200 282 244 282" fill="none" class="axis"/><path d="M 126 258 C 180 258 200 282 244 282" fill="none" class="axis"/><path d="M 126 306 C 180 306 200 282 244 282" fill="none" class="axis"/><path d="M 126 354 C 180 354 200 282 244 282" fill="none" class="axis"/>
    <path d="M 238 278 L 244 282 L 238 286" fill="none" stroke="#C9C2B6"/>
    <line x1="340" y1="282" x2="410" y2="282" class="axis"/>
    <path d="M 404 278 L 410 282 L 404 286" fill="none" stroke="#C9C2B6"/>
  </g>
<circle r="3" fill="#C96442" opacity="0"><set attributeName="opacity" to="1" begin="1.0s" fill="freeze"/><set attributeName="opacity" to="0" begin="1.9s" fill="freeze"/><animateMotion dur="0.9s" begin="1.0s" fill="freeze" path="M 200 124 L 292.0 124"/></circle>
<circle r="3" fill="#C96442" opacity="0"><set attributeName="opacity" to="1" begin="1.8s" fill="freeze"/><set attributeName="opacity" to="0" begin="2.7s" fill="freeze"/><animateMotion dur="0.9s" begin="1.8s" fill="freeze" path="M 292.0 124 L 460 124"/></circle>
<circle r="3" fill="#C96442" opacity="0"><set attributeName="opacity" to="1" begin="3.0s" fill="freeze"/><set attributeName="opacity" to="0" begin="3.9s" fill="freeze"/><animateMotion dur="0.9s" begin="3.0s" fill="freeze" path="M 126 258 C 180 258 200 282 292.0 282"/></circle>
<circle r="3" fill="#C96442" opacity="0"><set attributeName="opacity" to="1" begin="3.8s" fill="freeze"/><set attributeName="opacity" to="0" begin="4.7s" fill="freeze"/><animateMotion dur="0.9s" begin="3.8s" fill="freeze" path="M 292.0 282 L 410 282"/></circle>
<circle r="3" fill="#C96442" opacity="0"><set attributeName="opacity" to="1" begin="1.2s" fill="freeze"/><set attributeName="opacity" to="0" begin="2.1s" fill="freeze"/><animateMotion dur="0.9s" begin="1.2s" fill="freeze" path="M 200 124 L 292.0 124"/></circle>
<circle r="3" fill="#C96442" opacity="0"><set attributeName="opacity" to="1" begin="2.0s" fill="freeze"/><set attributeName="opacity" to="0" begin="2.9s" fill="freeze"/><animateMotion dur="0.9s" begin="2.0s" fill="freeze" path="M 292.0 124 L 460 124"/></circle>
<circle r="3" fill="#C96442" opacity="0"><set attributeName="opacity" to="1" begin="3.2s" fill="freeze"/><set attributeName="opacity" to="0" begin="4.1000000000000005s" fill="freeze"/><animateMotion dur="0.9s" begin="3.2s" fill="freeze" path="M 126 306 C 180 306 200 282 292.0 282"/></circle>
<circle r="3" fill="#C96442" opacity="0"><set attributeName="opacity" to="1" begin="4.0s" fill="freeze"/><set attributeName="opacity" to="0" begin="4.9s" fill="freeze"/><animateMotion dur="0.9s" begin="4.0s" fill="freeze" path="M 292.0 282 L 410 282"/></circle>
<circle r="3" fill="#C96442" opacity="0"><set attributeName="opacity" to="1" begin="1.4s" fill="freeze"/><set attributeName="opacity" to="0" begin="2.3s" fill="freeze"/><animateMotion dur="0.9s" begin="1.4s" fill="freeze" path="M 200 124 L 292.0 124"/></circle>
<circle r="3" fill="#C96442" opacity="0"><set attributeName="opacity" to="1" begin="2.2s" fill="freeze"/><set attributeName="opacity" to="0" begin="3.1s" fill="freeze"/><animateMotion dur="0.9s" begin="2.2s" fill="freeze" path="M 292.0 124 L 460 124"/></circle>
<circle r="3" fill="#C96442" opacity="0"><set attributeName="opacity" to="1" begin="3.4s" fill="freeze"/><set attributeName="opacity" to="0" begin="4.3s" fill="freeze"/><animateMotion dur="0.9s" begin="3.4s" fill="freeze" path="M 126 354 C 180 354 200 282 292.0 282"/></circle>
<circle r="3" fill="#C96442" opacity="0"><set attributeName="opacity" to="1" begin="4.2s" fill="freeze"/><set attributeName="opacity" to="0" begin="5.1000000000000005s" fill="freeze"/><animateMotion dur="0.9s" begin="4.2s" fill="freeze" path="M 292.0 282 L 410 282"/></circle>
<rect x="250" y="92" width="84" height="64" rx="6" fill="none" stroke="#C96442" stroke-width="2" opacity="0"><animate attributeName="opacity" values="0;1;0" dur="1.2s" begin="1.2s" fill="freeze"/></rect>
<rect x="250" y="250" width="84" height="64" rx="6" fill="none" stroke="#C96442" stroke-width="2" opacity="0"><animate attributeName="opacity" values="0;1;0" dur="1.2s" begin="3.2s" fill="freeze"/></rect>
  <g opacity="0"><animate attributeName="opacity" from="0" to="1" dur="0.4s" begin="2.2s" fill="freeze"/><rect x="494.0" y="116" width="8" height="7" fill="#F1ECE3"/><rect x="494.0" y="116" width="8" height="7" fill="#5B6F8F" opacity="0.33"/><rect x="494.0" y="124" width="8" height="7" fill="#F1ECE3"/><rect x="494.0" y="124" width="8" height="7" fill="#5B6F8F" opacity="0.37"/><rect x="494.0" y="132" width="8" height="7" fill="#F1ECE3"/><rect x="494.0" y="132" width="8" height="7" fill="#5B6F8F" opacity="0.22"/><rect x="494.0" y="140" width="8" height="7" fill="#F1ECE3"/><rect x="494.0" y="140" width="8" height="7" fill="#5B6F8F" opacity="0.52"/><rect x="494.0" y="148" width="8" height="7" fill="#F1ECE3"/><rect x="494.0" y="148" width="8" height="7" fill="#5B6F8F" opacity="0.51"/><rect x="494.0" y="156" width="8" height="7" fill="#F1ECE3"/><rect x="494.0" y="156" width="8" height="7" fill="#5B6F8F" opacity="0.79"/><text x="498.0" y="111" class="small" text-anchor="middle">dog</text></g>
  <g opacity="0"><animate attributeName="opacity" from="0" to="1" dur="0.4s" begin="2.4000000000000004s" fill="freeze"/><rect x="542.0" y="116" width="8" height="7" fill="#F1ECE3"/><rect x="542.0" y="116" width="8" height="7" fill="#5B6F8F" opacity="0.56"/><rect x="542.0" y="124" width="8" height="7" fill="#F1ECE3"/><rect x="542.0" y="124" width="8" height="7" fill="#5B6F8F" opacity="0.65"/><rect x="542.0" y="132" width="8" height="7" fill="#F1ECE3"/><rect x="542.0" y="132" width="8" height="7" fill="#5B6F8F" opacity="0.55"/><rect x="542.0" y="140" width="8" height="7" fill="#F1ECE3"/><rect x="542.0" y="140" width="8" height="7" fill="#5B6F8F" opacity="0.66"/><rect x="542.0" y="148" width="8" height="7" fill="#F1ECE3"/><rect x="542.0" y="148" width="8" height="7" fill="#5B6F8F" opacity="0.52"/><rect x="542.0" y="156" width="8" height="7" fill="#F1ECE3"/><rect x="542.0" y="156" width="8" height="7" fill="#5B6F8F" opacity="0.39"/><text x="546.0" y="111" class="small" text-anchor="middle">beach</text></g>
  <g opacity="0"><animate attributeName="opacity" from="0" to="1" dur="0.4s" begin="2.6s" fill="freeze"/><rect x="590.0" y="116" width="8" height="7" fill="#F1ECE3"/><rect x="590.0" y="116" width="8" height="7" fill="#5B6F8F" opacity="0.90"/><rect x="590.0" y="124" width="8" height="7" fill="#F1ECE3"/><rect x="590.0" y="124" width="8" height="7" fill="#5B6F8F" opacity="0.90"/><rect x="590.0" y="132" width="8" height="7" fill="#F1ECE3"/><rect x="590.0" y="132" width="8" height="7" fill="#5B6F8F" opacity="0.79"/><rect x="590.0" y="140" width="8" height="7" fill="#F1ECE3"/><rect x="590.0" y="140" width="8" height="7" fill="#5B6F8F" opacity="0.70"/><rect x="590.0" y="148" width="8" height="7" fill="#F1ECE3"/><rect x="590.0" y="148" width="8" height="7" fill="#5B6F8F" opacity="0.42"/><rect x="590.0" y="156" width="8" height="7" fill="#F1ECE3"/><rect x="590.0" y="156" width="8" height="7" fill="#5B6F8F" opacity="0.36"/><text x="594.0" y="111" class="small" text-anchor="middle">pizza</text></g>
  <g opacity="0"><animate attributeName="opacity" from="0" to="1" dur="0.4s" begin="2.8000000000000003s" fill="freeze"/><rect x="638.0" y="116" width="8" height="7" fill="#F1ECE3"/><rect x="638.0" y="116" width="8" height="7" fill="#5B6F8F" opacity="0.40"/><rect x="638.0" y="124" width="8" height="7" fill="#F1ECE3"/><rect x="638.0" y="124" width="8" height="7" fill="#5B6F8F" opacity="0.25"/><rect x="638.0" y="132" width="8" height="7" fill="#F1ECE3"/><rect x="638.0" y="132" width="8" height="7" fill="#5B6F8F" opacity="0.74"/><rect x="638.0" y="140" width="8" height="7" fill="#F1ECE3"/><rect x="638.0" y="140" width="8" height="7" fill="#5B6F8F" opacity="0.48"/><rect x="638.0" y="148" width="8" height="7" fill="#F1ECE3"/><rect x="638.0" y="148" width="8" height="7" fill="#5B6F8F" opacity="0.79"/><rect x="638.0" y="156" width="8" height="7" fill="#F1ECE3"/><rect x="638.0" y="156" width="8" height="7" fill="#5B6F8F" opacity="0.47"/><text x="642.0" y="111" class="small" text-anchor="middle">mountain</text></g>
  <g opacity="0"><animate attributeName="opacity" from="0" to="1" dur="0.4s" begin="4.2s" fill="freeze"/><rect x="418" y="206.0" width="7" height="8" fill="#F1ECE3"/><rect x="418" y="206.0" width="7" height="8" fill="#C96442" opacity="0.52"/><rect x="426" y="206.0" width="7" height="8" fill="#F1ECE3"/><rect x="426" y="206.0" width="7" height="8" fill="#C96442" opacity="0.59"/><rect x="434" y="206.0" width="7" height="8" fill="#F1ECE3"/><rect x="434" y="206.0" width="7" height="8" fill="#C96442" opacity="0.85"/><rect x="442" y="206.0" width="7" height="8" fill="#F1ECE3"/><rect x="442" y="206.0" width="7" height="8" fill="#C96442" opacity="0.53"/><rect x="450" y="206.0" width="7" height="8" fill="#F1ECE3"/><rect x="450" y="206.0" width="7" height="8" fill="#C96442" opacity="0.56"/><rect x="458" y="206.0" width="7" height="8" fill="#F1ECE3"/><rect x="458" y="206.0" width="7" height="8" fill="#C96442" opacity="0.61"/></g>
  <g opacity="0"><animate attributeName="opacity" from="0" to="1" dur="0.4s" begin="4.4s" fill="freeze"/><rect x="418" y="254.0" width="7" height="8" fill="#F1ECE3"/><rect x="418" y="254.0" width="7" height="8" fill="#C96442" opacity="0.33"/><rect x="426" y="254.0" width="7" height="8" fill="#F1ECE3"/><rect x="426" y="254.0" width="7" height="8" fill="#C96442" opacity="0.56"/><rect x="434" y="254.0" width="7" height="8" fill="#F1ECE3"/><rect x="434" y="254.0" width="7" height="8" fill="#C96442" opacity="0.64"/><rect x="442" y="254.0" width="7" height="8" fill="#F1ECE3"/><rect x="442" y="254.0" width="7" height="8" fill="#C96442" opacity="0.76"/><rect x="450" y="254.0" width="7" height="8" fill="#F1ECE3"/><rect x="450" y="254.0" width="7" height="8" fill="#C96442" opacity="0.27"/><rect x="458" y="254.0" width="7" height="8" fill="#F1ECE3"/><rect x="458" y="254.0" width="7" height="8" fill="#C96442" opacity="0.41"/></g>
  <g opacity="0"><animate attributeName="opacity" from="0" to="1" dur="0.4s" begin="4.6000000000000005s" fill="freeze"/><rect x="418" y="302.0" width="7" height="8" fill="#F1ECE3"/><rect x="418" y="302.0" width="7" height="8" fill="#C96442" opacity="0.26"/><rect x="426" y="302.0" width="7" height="8" fill="#F1ECE3"/><rect x="426" y="302.0" width="7" height="8" fill="#C96442" opacity="0.77"/><rect x="434" y="302.0" width="7" height="8" fill="#F1ECE3"/><rect x="434" y="302.0" width="7" height="8" fill="#C96442" opacity="0.69"/><rect x="442" y="302.0" width="7" height="8" fill="#F1ECE3"/><rect x="442" y="302.0" width="7" height="8" fill="#C96442" opacity="0.23"/><rect x="450" y="302.0" width="7" height="8" fill="#F1ECE3"/><rect x="450" y="302.0" width="7" height="8" fill="#C96442" opacity="0.89"/><rect x="458" y="302.0" width="7" height="8" fill="#F1ECE3"/><rect x="458" y="302.0" width="7" height="8" fill="#C96442" opacity="0.88"/></g>
  <g opacity="0"><animate attributeName="opacity" from="0" to="1" dur="0.4s" begin="4.800000000000001s" fill="freeze"/><rect x="418" y="350.0" width="7" height="8" fill="#F1ECE3"/><rect x="418" y="350.0" width="7" height="8" fill="#C96442" opacity="0.66"/><rect x="426" y="350.0" width="7" height="8" fill="#F1ECE3"/><rect x="426" y="350.0" width="7" height="8" fill="#C96442" opacity="0.63"/><rect x="434" y="350.0" width="7" height="8" fill="#F1ECE3"/><rect x="434" y="350.0" width="7" height="8" fill="#C96442" opacity="0.31"/><rect x="442" y="350.0" width="7" height="8" fill="#F1ECE3"/><rect x="442" y="350.0" width="7" height="8" fill="#C96442" opacity="0.21"/><rect x="450" y="350.0" width="7" height="8" fill="#F1ECE3"/><rect x="450" y="350.0" width="7" height="8" fill="#C96442" opacity="0.57"/><rect x="458" y="350.0" width="7" height="8" fill="#F1ECE3"/><rect x="458" y="350.0" width="7" height="8" fill="#C96442" opacity="0.24"/></g>
  <g opacity="0"><animate attributeName="opacity" from="0" to="1" dur="0.6s" begin="5.0s" fill="freeze"/>
    <text x="442.0" y="194" class="small" text-anchor="middle">d numbers</text>
  </g>
  <g opacity="0"><animate attributeName="opacity" from="0" to="1" dur="0.6s" begin="4.6s" fill="freeze"/><rect x="475" y="187" width="46" height="46" rx="3" fill="#F1ECE3"/><rect x="523" y="187" width="46" height="46" rx="3" fill="#F1ECE3"/><rect x="571" y="187" width="46" height="46" rx="3" fill="#F1ECE3"/><rect x="619" y="187" width="46" height="46" rx="3" fill="#F1ECE3"/><rect x="475" y="235" width="46" height="46" rx="3" fill="#F1ECE3"/><rect x="523" y="235" width="46" height="46" rx="3" fill="#F1ECE3"/><rect x="571" y="235" width="46" height="46" rx="3" fill="#F1ECE3"/><rect x="619" y="235" width="46" height="46" rx="3" fill="#F1ECE3"/><rect x="475" y="283" width="46" height="46" rx="3" fill="#F1ECE3"/><rect x="523" y="283" width="46" height="46" rx="3" fill="#F1ECE3"/><rect x="571" y="283" width="46" height="46" rx="3" fill="#F1ECE3"/><rect x="619" y="283" width="46" height="46" rx="3" fill="#F1ECE3"/><rect x="475" y="331" width="46" height="46" rx="3" fill="#F1ECE3"/><rect x="523" y="331" width="46" height="46" rx="3" fill="#F1ECE3"/><rect x="571" y="331" width="46" height="46" rx="3" fill="#F1ECE3"/><rect x="619" y="331" width="46" height="46" rx="3" fill="#F1ECE3"/></g>
  <g opacity="0"><set attributeName="opacity" to="1" begin="5.6s" fill="freeze"/><set attributeName="opacity" to="0" begin="6.699999999999999s" fill="freeze"/>
    <rect x="415" y="203.0" width="53" height="14" rx="3" fill="none" stroke="#C96442" stroke-width="1.8"/>
    <rect x="491.0" y="113" width="14" height="53" rx="3" fill="none" stroke="#5B6F8F" stroke-width="1.8"/>
    <rect x="474" y="186" width="48" height="48" rx="4" fill="none" stroke="#8A8378" stroke-width="1.8"/>
    <line x1="468" y1="210.0" x2="480" y2="210.0" stroke="#C96442" stroke-width="1" stroke-dasharray="2 3"/>
    <line x1="498.0" y1="166" x2="498.0" y2="192" stroke="#5B6F8F" stroke-width="1" stroke-dasharray="2 3"/>
  </g>
  <g opacity="0"><set attributeName="opacity" to="1" begin="6.699999999999999s" fill="freeze"/><set attributeName="opacity" to="0" begin="7.8s" fill="freeze"/>
    <rect x="415" y="251.0" width="53" height="14" rx="3" fill="none" stroke="#C96442" stroke-width="1.8"/>
    <rect x="635.0" y="113" width="14" height="53" rx="3" fill="none" stroke="#5B6F8F" stroke-width="1.8"/>
    <rect x="618" y="234" width="48" height="48" rx="4" fill="none" stroke="#8A8378" stroke-width="1.8"/>
    <line x1="468" y1="258.0" x2="624" y2="258.0" stroke="#C96442" stroke-width="1" stroke-dasharray="2 3"/>
    <line x1="642.0" y1="166" x2="642.0" y2="240" stroke="#5B6F8F" stroke-width="1" stroke-dasharray="2 3"/>
  </g>
  <g opacity="0"><set attributeName="opacity" to="1" begin="7.8s" fill="freeze"/><set attributeName="opacity" to="0" begin="8.9s" fill="freeze"/>
    <rect x="415" y="347.0" width="53" height="14" rx="3" fill="none" stroke="#C96442" stroke-width="1.8"/>
    <rect x="539.0" y="113" width="14" height="53" rx="3" fill="none" stroke="#5B6F8F" stroke-width="1.8"/>
    <rect x="522" y="330" width="48" height="48" rx="4" fill="none" stroke="#8A8378" stroke-width="1.8"/>
    <line x1="468" y1="354.0" x2="528" y2="354.0" stroke="#C96442" stroke-width="1" stroke-dasharray="2 3"/>
    <line x1="546.0" y1="166" x2="546.0" y2="336" stroke="#5B6F8F" stroke-width="1" stroke-dasharray="2 3"/>
  </g>
  <circle cx="498.0" cy="210.0" r="8.7" fill="#8A8378" opacity="0"><animate attributeName="opacity" from="0" to="0.45" dur="0.4s" begin="5.90s" fill="freeze"/></circle>
  <circle cx="546.0" cy="210.0" r="4.9" fill="#8A8378" opacity="0"><animate attributeName="opacity" from="0" to="0.45" dur="0.4s" begin="9.02s" fill="freeze"/></circle>
  <circle cx="594.0" cy="210.0" r="4.0" fill="#8A8378" opacity="0"><animate attributeName="opacity" from="0" to="0.45" dur="0.4s" begin="9.14s" fill="freeze"/></circle>
  <circle cx="642.0" cy="210.0" r="7.2" fill="#8A8378" opacity="0"><animate attributeName="opacity" from="0" to="0.45" dur="0.4s" begin="9.26s" fill="freeze"/></circle>
  <circle cx="498.0" cy="258.0" r="3.6" fill="#8A8378" opacity="0"><animate attributeName="opacity" from="0" to="0.45" dur="0.4s" begin="9.02s" fill="freeze"/></circle>
  <circle cx="546.0" cy="258.0" r="8.3" fill="#8A8378" opacity="0"><animate attributeName="opacity" from="0" to="0.45" dur="0.4s" begin="9.14s" fill="freeze"/></circle>
  <circle cx="594.0" cy="258.0" r="3.6" fill="#8A8378" opacity="0"><animate attributeName="opacity" from="0" to="0.45" dur="0.4s" begin="9.26s" fill="freeze"/></circle>
  <circle cx="642.0" cy="258.0" r="4.1" fill="#8A8378" opacity="0"><animate attributeName="opacity" from="0" to="0.45" dur="0.4s" begin="7.00s" fill="freeze"/></circle>
  <circle cx="498.0" cy="306.0" r="4.1" fill="#8A8378" opacity="0"><animate attributeName="opacity" from="0" to="0.45" dur="0.4s" begin="9.14s" fill="freeze"/></circle>
  <circle cx="546.0" cy="306.0" r="3.8" fill="#8A8378" opacity="0"><animate attributeName="opacity" from="0" to="0.45" dur="0.4s" begin="9.26s" fill="freeze"/></circle>
  <circle cx="594.0" cy="306.0" r="9.5" fill="#8A8378" opacity="0"><animate attributeName="opacity" from="0" to="0.45" dur="0.4s" begin="9.38s" fill="freeze"/></circle>
  <circle cx="642.0" cy="306.0" r="3.4" fill="#8A8378" opacity="0"><animate attributeName="opacity" from="0" to="0.45" dur="0.4s" begin="9.50s" fill="freeze"/></circle>
  <circle cx="498.0" cy="354.0" r="5.3" fill="#8A8378" opacity="0"><animate attributeName="opacity" from="0" to="0.45" dur="0.4s" begin="9.26s" fill="freeze"/></circle>
  <circle cx="546.0" cy="354.0" r="6.6" fill="#8A8378" opacity="0"><animate attributeName="opacity" from="0" to="0.45" dur="0.4s" begin="8.10s" fill="freeze"/></circle>
  <circle cx="594.0" cy="354.0" r="3.2" fill="#8A8378" opacity="0"><animate attributeName="opacity" from="0" to="0.45" dur="0.4s" begin="9.50s" fill="freeze"/></circle>
  <circle cx="642.0" cy="354.0" r="7.9" fill="#8A8378" opacity="0"><animate attributeName="opacity" from="0" to="0.45" dur="0.4s" begin="9.62s" fill="freeze"/></circle>
  <g opacity="0"><animate attributeName="opacity" from="0" to="1" dur="0.4s" begin="10.3s" fill="freeze"/>
    <rect x="475" y="187" width="46" height="46" rx="3" fill="#B9CFA4" opacity="0.75"/>
    <circle cx="498.0" cy="210.0" r="8.7" fill="#6E8F57"/>
    <path d="M 492.0 210.0 L 496.5 215.0 L 505.0 205.0" fill="none" stroke="#FFFFFF" stroke-width="2.2" stroke-linecap="round" stroke-linejoin="round"/>
  </g>
  <g opacity="0"><animate attributeName="opacity" from="0" to="1" dur="0.4s" begin="10.5s" fill="freeze"/>
    <rect x="523" y="235" width="46" height="46" rx="3" fill="#B9CFA4" opacity="0.75"/>
    <circle cx="546.0" cy="258.0" r="8.3" fill="#6E8F57"/>
    <path d="M 540.0 258.0 L 544.5 263.0 L 553.0 253.0" fill="none" stroke="#FFFFFF" stroke-width="2.2" stroke-linecap="round" stroke-linejoin="round"/>
  </g>
  <g opacity="0"><animate attributeName="opacity" from="0" to="1" dur="0.4s" begin="10.700000000000001s" fill="freeze"/>
    <rect x="571" y="283" width="46" height="46" rx="3" fill="#B9CFA4" opacity="0.75"/>
    <circle cx="594.0" cy="306.0" r="9.5" fill="#6E8F57"/>
    <path d="M 588.0 306.0 L 592.5 311.0 L 601.0 301.0" fill="none" stroke="#FFFFFF" stroke-width="2.2" stroke-linecap="round" stroke-linejoin="round"/>
  </g>
  <g opacity="0"><animate attributeName="opacity" from="0" to="1" dur="0.4s" begin="10.9s" fill="freeze"/>
    <rect x="619" y="331" width="46" height="46" rx="3" fill="#B9CFA4" opacity="0.75"/>
    <circle cx="642.0" cy="354.0" r="7.9" fill="#6E8F57"/>
    <path d="M 636.0 354.0 L 640.5 359.0 L 649.0 349.0" fill="none" stroke="#FFFFFF" stroke-width="2.2" stroke-linecap="round" stroke-linejoin="round"/>
  </g>
  <g opacity="0"><animate attributeName="opacity" from="0" to="1" dur="0.8s" begin="11.5s" fill="freeze"/>
    <text x="570.0" y="394" class="small" text-anchor="middle">N right pairs on the diagonal, N² − N wrong ones</text>
  </g>
</svg>
