<svg xmlns="http://www.w3.org/2000/svg" xmlns:ns1="http://c2pa.org/manifest" width="720" height="400" viewBox="0 0 720 400" xmlns:c2pa="http://c2pa.org/manifest"><metadata><c2pa:manifest>AAAWgmp1bWIAAAAeanVtZGMycGEAEQAQgAAAqgA4m3EDYzJwYQAAABZcanVtYgAAAEdqdW1kYzJtYQARABCAAACqADibcQN1cm46YzJwYTowNWQ2NjdiOC02MTlmLTRmNTAtYjViYS1jMjQ5N2QyYTkwMzkAAAADl2p1bWIAAAApanVtZGMyYXMAEQAQgAAAqgA4m3EDYzJwYS5hc3NlcnRpb25zAAAAALxqdW1iAAAARGp1bWRjYm9yABEAEIAAAKoAOJtxE2MycGEuaW5ncmVkaWVudC52MwAAAAAYYzJzaIGJjkAw+kI3MW2w5s3I91gAAABwY2JvcqNpZGM6Zm9ybWF0bWltYWdlL3N2Zyt4bWxqaW5zdGFuY2VJRHgseG1wOmlpZDo2ODg4ZDJmNC00NGVmLTQ4ZDUtYWQ3NC1kMzc3Y2M5MzNmOWJscmVsYXRpb25zaGlwaHBhcmVudE9mAAAB4mp1bWIAAABBanVtZGNib3IAEQAQgAAAqgA4m3ETYzJwYS5hY3Rpb25zLnYyAAAAABhjMnNouz6Rfyt0IOeVRiJZeG/3FwAAAZljYm9yomdhY3Rpb25zgqJmYWN0aW9ua2MycGEub3BlbmVkanBhcmFtZXRlcnOha2luZ3JlZGllbnRzgaJjdXJseC1zZWxmI2p1bWJmPWMycGEuYXNzZXJ0aW9ucy9jMnBhLmluZ3JlZGllbnQudjNkaGFzaFggo+7iLaShh/lusfNP9DUNoh9YK1YrV7E7RgFD8Ro5h0KkZmFjdGlvbngdY29tLmFudGhyb3BpYy5jbGF1ZGUucHJvdmlkZWRqcGFyYW1ldGVyc6F4H2NvbS5hbnRocm9waWMub3JpZ2luLWNvbmZpZGVuY2VndW5rbm93bmtkZXNjcmlwdGlvbnhmQ2xhdWRlIHByb3ZpZGVkIHRoaXMgZmlsZSBhdCB0aGUgcmVxdWVzdCBvZiBhIHVzZXIgYW5kIG1heSBoYXZlIGNyZWF0ZWQgb3IgbW9kaWZpZWQgdGhlIGZpbGUgY29udGVudHMubXNvZnR3YXJlQWdlbnShZG5hbWVmQ2xhdWRlcmFsbEFjdGlvbnNJbmNsdWRlZPUAAADIanVtYgAAAEBqdW1kY2JvcgARABCAAACqADibcRNjMnBhLmhhc2guZGF0YQAAAAAYYzJzaJo4GaioLG5ph09Y7Jq2C84AAACAY2JvcqVjYWxnZnNoYTI1NmNwYWRNAAAAAAAAAAAAAAAAAGRoYXNoWCDuYDgN/VTx7ruJB66vGdzY0zb75v5zgSxKXfs9HBKlPmRuYW1lbmp1bWJmIG1hbmlmZXN0amV4Y2x1c2lvbnOBomVzdGFydBi7Zmxlbmd0aBkeBAAAAj5qdW1iAAAAJ2p1bWRjMmNsABEAEIAAAKoAOJtxA2MycGEuY2xhaW0udjIAAAACD2Nib3KlY2FsZ2ZzaGEyNTZpc2lnbmF0dXJleE1zZWxmI2p1bWJmPS9jMnBhL3VybjpjMnBhOjA1ZDY2N2I4LTYxOWYtNGY1MC1iNWJhLWMyNDk3ZDJhOTAzOS9jMnBhLnNpZ25hdHVyZWppbnN0YW5jZUlEeCx4bXA6aWlkOjQ4MWUxMGNlLWJiNzgtNGRlNS1iOTczLTg4NGRkYzI0ZjA2M3JjcmVhdGVkX2Fzc2VydGlvbnODomN1cmx4LXNlbGYjanVtYmY9YzJwYS5hc3NlcnRpb25zL2MycGEuaW5ncmVkaWVudC52M2RoYXNoWCCj7uItpKGH+W6x80/0NQ2iH1grVitXsTtGAUPxGjmHQqJjdXJseCpzZWxmI2p1bWJmPWMycGEuYXNzZXJ0aW9ucy9jMnBhLmFjdGlvbnMudjJkaGFzaFggMdaou8625jhQOfcnV/7oE+cJ5gkmzcsfjV6dM5ZX3xOiY3VybHgpc2VsZiNqdW1iZj1jMnBhLmFzc2VydGlvbnMvYzJwYS5oYXNoLmRhdGFkaGFzaFggTBDIZfmSBDb8VA12ZuiFW1t4yZTf+lD6H3RrkIOLQ9V0Y2xhaW1fZ2VuZXJhdG9yX2luZm+jZG5hbWVvQW50aHJvcGljIEZpbGVzZ3ZlcnNpb25lMS4wLjBrc3BlY1ZlcnNpb25lMi40LjAAABA4anVtYgAAAChqdW1kYzJjcwARABCAAACqADibcQNjMnBhLnNpZ25hdHVyZQAAABAIY2JvctKEWQISogEmGCFZAgowggIGMIIBjaADAgECAhRA5aAK7sI50L64g/oGQgU9Z1UTADAKBggqhkjOPQQDAzBJMRcwFQYDVQQKEw5BbnRocm9waWMsIFBCQzEuMCwGA1UEAxMlQW50aHJvcGljIENvbnRlbnQgQ3JlZGVudGlhbHMgUm9vdCBDQTAeFw0yNjA4MDcxODQzNTZaFw0yODA4MDYxOTQzNTZaMEQxFzAVBgNVBAoTDkFudGhyb3BpYywgUEJDMSkwJwYDVQQDEyBBbnRocm9waWMgQ2xhdWRlIENvbnRlbnQgU2lnbmluZzBZMBMGByqGSM49AgEGCCqGSM49AwEHA0IABJh6CmvLUBgFFNU0vUKlOVtE6djd17L5SuwX0LemFisBM3dkd/3cyjxFA3Qo5S46fX0/ihY0VZ7mfb9KF703t5OjWDBWMA4GA1UdDwEB/wQEAwIHgDAVBgNVHSUEDjAMBgorBgEEAYPoXgIBMAwGA1UdEwEB/wQCMAAwHwYDVR0jBBgwFoAUzlHiBIFOZFsj+OPEz5o+nMHXXMIwCgYIKoZIzj0EAwMDZwAwZAIwMXMdFJ4BetLLVY7ORuE9noqbbAZOZn/aArXyTwFAZfKrPzxF2vPoJNf1+UCdg1XGAjBwX1zd9WGqYkqmL5SFqw1QySjr1zJfpJM9+1rdDwSPLMOPOjKuiXjoU/pUUeG9RwmhY3BhZFkNngAAAAAAAAAAAAAAAAAAAAAAAAAAAAAAAAAAAAAAAAAAAAAAAAAAAAAAAAAAAAAAAAAAAAAAAAAAAAAAAAAAAAAAAAAAAAAAAAAAAAAAAAAAAAAAAAAAAAAAAAAAAAAAAAAAAAAAAAAAAAAAAAAAAAAAAAAAAAAAAAAAAAAAAAAAAAAAAAAAAAAAAAAAAAAAAAAAAAAAAAAAAAAAAAAAAAAAAAAAAAAAAAAAAAAAAAAAAAAAAAAAAAAAAAAAAAAAAAAAAAAAAAAAAAAAAAAAAAAAAAAAAAAAAAAAAAAAAAAAAAAAAAAAAAAAAAAAAAAAAAAAAAAAAAAAAAAAAAAAAAAAAAAAAAAAAAAAAAAAAAAAAAAAAAAAAAAAAAAAAAAAAAAAAAAAAAAAAAAAAAAAAAAAAAAAAAAAAAAAAAAAAAAAAAAAAAAAAAAAAAAAAAAAAAAAAAAAAAAAAAAAAAAAAAAAAAAAAAAAAAAAAAAAAAAAAAAAAAAAAAAAAAAAAAAAAAAAAAAAAAAAAAAAAAAAAAAAAAAAAAAAAAAAAAAAAAAAAAAAAAAAAAAAAAAAAAAAAAAAAAAAAAAAAAAAAAAAAAAAAAAAAAAAAAAAAAAAAAAAAAAAAAAAAAAAAAAAAAAAAAAAAAAAAAAAAAAAAAAAAAAAAAAAAAAAAAAAAAAAAAAAAAAAAAAAAAAAAAAAAAAAAAAAAAAAAAAAAAAAAAAAAAAAAAAAAAAAAAAAAAAAAAAAAAAAAAAAAAAAAAAAAAAAAAAAAAAAAAAAAAAAAAAAAAAAAAAAAAAAAAAAAAAAAAAAAAAAAAAAAAAAAAAAAAAAAAAAAAAAAAAAAAAAAAAAAAAAAAAAAAAAAAAAAAAAAAAAAAAAAAAAAAAAAAAAAAAAAAAAAAAAAAAAAAAAAAAAAAAAAAAAAAAAAAAAAAAAAAAAAAAAAAAAAAAAAAAAAAAAAAAAAAAAAAAAAAAAAAAAAAAAAAAAAAAAAAAAAAAAAAAAAAAAAAAAAAAAAAAAAAAAAAAAAAAAAAAAAAAAAAAAAAAAAAAAAAAAAAAAAAAAAAAAAAAAAAAAAAAAAAAAAAAAAAAAAAAAAAAAAAAAAAAAAAAAAAAAAAAAAAAAAAAAAAAAAAAAAAAAAAAAAAAAAAAAAAAAAAAAAAAAAAAAAAAAAAAAAAAAAAAAAAAAAAAAAAAAAAAAAAAAAAAAAAAAAAAAAAAAAAAAAAAAAAAAAAAAAAAAAAAAAAAAAAAAAAAAAAAAAAAAAAAAAAAAAAAAAAAAAAAAAAAAAAAAAAAAAAAAAAAAAAAAAAAAAAAAAAAAAAAAAAAAAAAAAAAAAAAAAAAAAAAAAAAAAAAAAAAAAAAAAAAAAAAAAAAAAAAAAAAAAAAAAAAAAAAAAAAAAAAAAAAAAAAAAAAAAAAAAAAAAAAAAAAAAAAAAAAAAAAAAAAAAAAAAAAAAAAAAAAAAAAAAAAAAAAAAAAAAAAAAAAAAAAAAAAAAAAAAAAAAAAAAAAAAAAAAAAAAAAAAAAAAAAAAAAAAAAAAAAAAAAAAAAAAAAAAAAAAAAAAAAAAAAAAAAAAAAAAAAAAAAAAAAAAAAAAAAAAAAAAAAAAAAAAAAAAAAAAAAAAAAAAAAAAAAAAAAAAAAAAAAAAAAAAAAAAAAAAAAAAAAAAAAAAAAAAAAAAAAAAAAAAAAAAAAAAAAAAAAAAAAAAAAAAAAAAAAAAAAAAAAAAAAAAAAAAAAAAAAAAAAAAAAAAAAAAAAAAAAAAAAAAAAAAAAAAAAAAAAAAAAAAAAAAAAAAAAAAAAAAAAAAAAAAAAAAAAAAAAAAAAAAAAAAAAAAAAAAAAAAAAAAAAAAAAAAAAAAAAAAAAAAAAAAAAAAAAAAAAAAAAAAAAAAAAAAAAAAAAAAAAAAAAAAAAAAAAAAAAAAAAAAAAAAAAAAAAAAAAAAAAAAAAAAAAAAAAAAAAAAAAAAAAAAAAAAAAAAAAAAAAAAAAAAAAAAAAAAAAAAAAAAAAAAAAAAAAAAAAAAAAAAAAAAAAAAAAAAAAAAAAAAAAAAAAAAAAAAAAAAAAAAAAAAAAAAAAAAAAAAAAAAAAAAAAAAAAAAAAAAAAAAAAAAAAAAAAAAAAAAAAAAAAAAAAAAAAAAAAAAAAAAAAAAAAAAAAAAAAAAAAAAAAAAAAAAAAAAAAAAAAAAAAAAAAAAAAAAAAAAAAAAAAAAAAAAAAAAAAAAAAAAAAAAAAAAAAAAAAAAAAAAAAAAAAAAAAAAAAAAAAAAAAAAAAAAAAAAAAAAAAAAAAAAAAAAAAAAAAAAAAAAAAAAAAAAAAAAAAAAAAAAAAAAAAAAAAAAAAAAAAAAAAAAAAAAAAAAAAAAAAAAAAAAAAAAAAAAAAAAAAAAAAAAAAAAAAAAAAAAAAAAAAAAAAAAAAAAAAAAAAAAAAAAAAAAAAAAAAAAAAAAAAAAAAAAAAAAAAAAAAAAAAAAAAAAAAAAAAAAAAAAAAAAAAAAAAAAAAAAAAAAAAAAAAAAAAAAAAAAAAAAAAAAAAAAAAAAAAAAAAAAAAAAAAAAAAAAAAAAAAAAAAAAAAAAAAAAAAAAAAAAAAAAAAAAAAAAAAAAAAAAAAAAAAAAAAAAAAAAAAAAAAAAAAAAAAAAAAAAAAAAAAAAAAAAAAAAAAAAAAAAAAAAAAAAAAAAAAAAAAAAAAAAAAAAAAAAAAAAAAAAAAAAAAAAAAAAAAAAAAAAAAAAAAAAAAAAAAAAAAAAAAAAAAAAAAAAAAAAAAAAAAAAAAAAAAAAAAAAAAAAAAAAAAAAAAAAAAAAAAAAAAAAAAAAAAAAAAAAAAAAAAAAAAAAAAAAAAAAAAAAAAAAAAAAAAAAAAAAAAAAAAAAAAAAAAAAAAAAAAAAAAAAAAAAAAAAAAAAAAAAAAAAAAAAAAAAAAAAAAAAAAAAAAAAAAAAAAAAAAAAAAAAAAAAAAAAAAAAAAAAAAAAAAAAAAAAAAAAAAAAAAAAAAAAAAAAAAAAAAAAAAAAAAAAAAAAAAAAAAAAAAAAAAAAAAAAAAAAAAAAAAAAAAAAAAAAAAAAAAAAAAAAAAAAAAAAAAAAAAAAAAAAAAAAAAAAAAAAAAAAAAAAAAAAAAAAAAAAAAAAAAAAAAAAAAAAAAAAAAAAAAAAAAAAAAAAAAAAAAAAAAAAAAAAAAAAAAAAAAAAAAAAAAAAAAAAAAAAAAAAAAAAAAAAAAAAAAAAAAAAAAAAAAAAAAAAAAAAAAAAAAAAAAAAAAAAAAAAAAAAAAAAAAAAAAAAAAAAAAAAAAAAAAAAAAAAAAAAAAAAAAAAAAAAAAAAAAAAAAAAAAAAAAAAAAAAAAAAAAAAAAAAAAAAAAAAAAAAAAAAAAAAAAAAAAAAAAAAAAAAAAAAAAAAAAAAAAAAAAAAAAAAAAAAAAAAAAAAAAAAAAAAAAAAAAAAAAAAAAAAAAAAAAAAAAAAAAAAAAAAAAAAAAAAAAAAAAAAAAAAAAAAAAAAAAAAAAAAAAAAAAAAAAAAAAAAAAAAAAAAAAAAAAAAAAAAAAAAAAAAAAAAAAAAAAAAAAAAAAAAAAAAAAAAAAAAAAAAAAAAAAAAAAAAAAAAAAAAAAAAAAAAAAAAAAAAAAAAAAAAAAAAAAAAAAAAAAAAAAAAAAAAAAAAAAAAAAAAAAAAAAAAAAAAAAAAAAAAAAAAAAAAAAAAAAAAAAAAAAAAAAAAAAAAAAAAAAAAAAAAAAAAAAAAAAAAAAAAAAAAAAAAAAAAAAAAAAAAAAAAAAAAAAAAAAAAAAAAAAAAAAAAAAAAAAAAAAAAAAAAAAAAAAAAAAAAAAAAAAAAAAAAAAAAAAAAAAAAAAAAAAAAAAAAAAAAAAAAAAAAAAAAAAAAAAAAAAAAAAAAAAAAAAAAAAAAAAAAAAAAAAAAAAAAAAAAAAAAAAAAAAAAAAAAAAAAAAAAAAAAAAAAAAAAAAAAAAAAAAAAAAAAAAAAAAAAAAAAAAAAAAAAAAAAAAAAAAAAAAAAAAAAAAAAAAAAAAAAAAAAAAAAAAAAAAAAAAAAAAAAAAAAAAAAAAAAAAAAAAAAAAAAAAAAAAAAAAAAAAAAAAAAAAAAAAAAAAAAAAAAAAAAAAAAAAAAAAAAAAAAAAAAAAAAAAAAAAAAAAAAAAAAAAAAAAAAAAAAAAAAAAAAAAAAAAAAAAAAAAAAAAAAAAAAAAAAAAAAAAAAAAAAAAAAAAAAAAAAAAAAAAAAAAAAAAAAAAAAAAAAAAAAAAAAAAAAAAAAAAAAAAAAAAAAAAAAAAAAAAAAAAAAAAAAAAAAAAAAAAAAAAAAAAAAAAAAAAAAAAAAAAAAAAAAAAAAAAAAAAAAAAAAAAAAAAAAAAAAAAAAAAAAAAAAAAAAAAAAAAAAAAAAAAAAAAAAAAAAAAAAAAAAAAAAAAAAAAAAAAAAAAAAAAAAAAAAAAAAAAAAAAAAAAAAAAAAAAAAAAAAAAAAAAAAAAAAAAAAAAAAAAAAAAAAAAAAAAAAAAAAAAAAAAAAAAAAAAAAAAAAAAAAAAAAAAAAAAAAAAAAAAAAAAAAAAAAAAAAAAAAAAAAAAAAAAAAAAAAAAAAAAAAAAAAAAAAAAAAAAAAAAAAAAAAAAAAAAAAAAAAAAAAAAAAAAAAAAAAAAAAPZYQBjI0TtNhutFrO6LM1kgIw9e1Ze2+yVD4PCN6v3PUa8gul1W3vPzAqyz8wrVUPFPGLCgzyndVF/QTogpGUUM07o=</c2pa:manifest></metadata>
  
  <style>
    text { font-family: ui-sans-serif, -apple-system, 'Segoe UI', Helvetica, Arial, sans-serif; fill: #8A8378; }
    .title { font-size: 15px; fill: #C96442; font-weight: 500; letter-spacing: 0.06em; }
    .formula { font-family: Georgia, 'Times New Roman', serif; font-style: italic; font-size: 13px; fill: #8A8378; }
    .tick { font-size: 11px; }
    .small { font-size: 9.5px; }
    .label { font-size: 12px; fill: #8A8378; }
    .axis { stroke: #C9C2B6; stroke-width: 1; }
    .bound { stroke: #DDD6C9; stroke-width: 1; stroke-dasharray: 3 5; }
    .cell { fill: #F1ECE3; stroke: #DDD6C9; stroke-width: 1; }
    .win { fill: none; stroke: #C96442; stroke-width: 2; }
    .accent { fill: #C96442; }
  </style>

  <g opacity="0"><set attributeName="opacity" to="0" begin="replay.click" fill="freeze" /><animate attributeName="opacity" from="0" to="1" dur="0.8s" begin="0s;replay.click+0s" fill="freeze" />
    <text x="80" y="30" class="title">What one unit can see</text>
    <text x="80" y="50" class="formula">a CNN widens its view layer by layer, a ViT patch sees everything at layer 1</text>
  </g>
  <g opacity="0"><set attributeName="opacity" to="0" begin="replay.click" fill="freeze" /><animate attributeName="opacity" from="0" to="1" dur="0.5s" begin="0.3s;replay.click+0.3s" fill="freeze" />
    <rect x="110" y="110" width="19" height="19" rx="2" fill="#F1ECE3" /><rect x="131" y="110" width="19" height="19" rx="2" fill="#F1ECE3" /><rect x="152" y="110" width="19" height="19" rx="2" fill="#F1ECE3" /><rect x="173" y="110" width="19" height="19" rx="2" fill="#F1ECE3" /><rect x="194" y="110" width="19" height="19" rx="2" fill="#F1ECE3" /><rect x="215" y="110" width="19" height="19" rx="2" fill="#F1ECE3" /><rect x="236" y="110" width="19" height="19" rx="2" fill="#F1ECE3" /><rect x="257" y="110" width="19" height="19" rx="2" fill="#F1ECE3" /><rect x="278" y="110" width="19" height="19" rx="2" fill="#F1ECE3" /><rect x="110" y="131" width="19" height="19" rx="2" fill="#F1ECE3" /><rect x="131" y="131" width="19" height="19" rx="2" fill="#F1ECE3" /><rect x="152" y="131" width="19" height="19" rx="2" fill="#F1ECE3" /><rect x="173" y="131" width="19" height="19" rx="2" fill="#F1ECE3" /><rect x="194" y="131" width="19" height="19" rx="2" fill="#F1ECE3" /><rect x="215" y="131" width="19" height="19" rx="2" fill="#F1ECE3" /><rect x="236" y="131" width="19" height="19" rx="2" fill="#F1ECE3" /><rect x="257" y="131" width="19" height="19" rx="2" fill="#F1ECE3" /><rect x="278" y="131" width="19" height="19" rx="2" fill="#F1ECE3" /><rect x="110" y="152" width="19" height="19" rx="2" fill="#F1ECE3" /><rect x="131" y="152" width="19" height="19" rx="2" fill="#F1ECE3" /><rect x="152" y="152" width="19" height="19" rx="2" fill="#F1ECE3" /><rect x="173" y="152" width="19" height="19" rx="2" fill="#F1ECE3" /><rect x="194" y="152" width="19" height="19" rx="2" fill="#F1ECE3" /><rect x="215" y="152" width="19" height="19" rx="2" fill="#F1ECE3" /><rect x="236" y="152" width="19" height="19" rx="2" fill="#F1ECE3" /><rect x="257" y="152" width="19" height="19" rx="2" fill="#F1ECE3" /><rect x="278" y="152" width="19" height="19" rx="2" fill="#F1ECE3" /><rect x="110" y="173" width="19" height="19" rx="2" fill="#F1ECE3" /><rect x="131" y="173" width="19" height="19" rx="2" fill="#F1ECE3" /><rect x="152" y="173" width="19" height="19" rx="2" fill="#F1ECE3" /><rect x="173" y="173" width="19" height="19" rx="2" fill="#F1ECE3" /><rect x="194" y="173" width="19" height="19" rx="2" fill="#F1ECE3" /><rect x="215" y="173" width="19" height="19" rx="2" fill="#F1ECE3" /><rect x="236" y="173" width="19" height="19" rx="2" fill="#F1ECE3" /><rect x="257" y="173" width="19" height="19" rx="2" fill="#F1ECE3" /><rect x="278" y="173" width="19" height="19" rx="2" fill="#F1ECE3" /><rect x="110" y="194" width="19" height="19" rx="2" fill="#F1ECE3" /><rect x="131" y="194" width="19" height="19" rx="2" fill="#F1ECE3" /><rect x="152" y="194" width="19" height="19" rx="2" fill="#F1ECE3" /><rect x="173" y="194" width="19" height="19" rx="2" fill="#F1ECE3" /><rect x="194" y="194" width="19" height="19" rx="2" fill="#F1ECE3" /><rect x="215" y="194" width="19" height="19" rx="2" fill="#F1ECE3" /><rect x="236" y="194" width="19" height="19" rx="2" fill="#F1ECE3" /><rect x="257" y="194" width="19" height="19" rx="2" fill="#F1ECE3" /><rect x="278" y="194" width="19" height="19" rx="2" fill="#F1ECE3" /><rect x="110" y="215" width="19" height="19" rx="2" fill="#F1ECE3" /><rect x="131" y="215" width="19" height="19" rx="2" fill="#F1ECE3" /><rect x="152" y="215" width="19" height="19" rx="2" fill="#F1ECE3" /><rect x="173" y="215" width="19" height="19" rx="2" fill="#F1ECE3" /><rect x="194" y="215" width="19" height="19" rx="2" fill="#F1ECE3" /><rect x="215" y="215" width="19" height="19" rx="2" fill="#F1ECE3" /><rect x="236" y="215" width="19" height="19" rx="2" fill="#F1ECE3" /><rect x="257" y="215" width="19" height="19" rx="2" fill="#F1ECE3" /><rect x="278" y="215" width="19" height="19" rx="2" fill="#F1ECE3" /><rect x="110" y="236" width="19" height="19" rx="2" fill="#F1ECE3" /><rect x="131" y="236" width="19" height="19" rx="2" fill="#F1ECE3" /><rect x="152" y="236" width="19" height="19" rx="2" fill="#F1ECE3" /><rect x="173" y="236" width="19" height="19" rx="2" fill="#F1ECE3" /><rect x="194" y="236" width="19" height="19" rx="2" fill="#F1ECE3" /><rect x="215" y="236" width="19" height="19" rx="2" fill="#F1ECE3" /><rect x="236" y="236" width="19" height="19" rx="2" fill="#F1ECE3" /><rect x="257" y="236" width="19" height="19" rx="2" fill="#F1ECE3" /><rect x="278" y="236" width="19" height="19" rx="2" fill="#F1ECE3" /><rect x="110" y="257" width="19" height="19" rx="2" fill="#F1ECE3" /><rect x="131" y="257" width="19" height="19" rx="2" fill="#F1ECE3" /><rect x="152" y="257" width="19" height="19" rx="2" fill="#F1ECE3" /><rect x="173" y="257" width="19" height="19" rx="2" fill="#F1ECE3" /><rect x="194" y="257" width="19" height="19" rx="2" fill="#F1ECE3" /><rect x="215" y="257" width="19" height="19" rx="2" fill="#F1ECE3" /><rect x="236" y="257" width="19" height="19" rx="2" fill="#F1ECE3" /><rect x="257" y="257" width="19" height="19" rx="2" fill="#F1ECE3" /><rect x="278" y="257" width="19" height="19" rx="2" fill="#F1ECE3" /><rect x="110" y="278" width="19" height="19" rx="2" fill="#F1ECE3" /><rect x="131" y="278" width="19" height="19" rx="2" fill="#F1ECE3" /><rect x="152" y="278" width="19" height="19" rx="2" fill="#F1ECE3" /><rect x="173" y="278" width="19" height="19" rx="2" fill="#F1ECE3" /><rect x="194" y="278" width="19" height="19" rx="2" fill="#F1ECE3" /><rect x="215" y="278" width="19" height="19" rx="2" fill="#F1ECE3" /><rect x="236" y="278" width="19" height="19" rx="2" fill="#F1ECE3" /><rect x="257" y="278" width="19" height="19" rx="2" fill="#F1ECE3" /><rect x="278" y="278" width="19" height="19" rx="2" fill="#F1ECE3" /><text x="110" y="96" class="label">CNN, 3 × 3 convs</text>
    <rect x="430" y="110" width="19" height="19" rx="2" fill="#F1ECE3" /><rect x="451" y="110" width="19" height="19" rx="2" fill="#F1ECE3" /><rect x="472" y="110" width="19" height="19" rx="2" fill="#F1ECE3" /><rect x="493" y="110" width="19" height="19" rx="2" fill="#F1ECE3" /><rect x="514" y="110" width="19" height="19" rx="2" fill="#F1ECE3" /><rect x="535" y="110" width="19" height="19" rx="2" fill="#F1ECE3" /><rect x="556" y="110" width="19" height="19" rx="2" fill="#F1ECE3" /><rect x="577" y="110" width="19" height="19" rx="2" fill="#F1ECE3" /><rect x="598" y="110" width="19" height="19" rx="2" fill="#F1ECE3" /><rect x="430" y="131" width="19" height="19" rx="2" fill="#F1ECE3" /><rect x="451" y="131" width="19" height="19" rx="2" fill="#F1ECE3" /><rect x="472" y="131" width="19" height="19" rx="2" fill="#F1ECE3" /><rect x="493" y="131" width="19" height="19" rx="2" fill="#F1ECE3" /><rect x="514" y="131" width="19" height="19" rx="2" fill="#F1ECE3" /><rect x="535" y="131" width="19" height="19" rx="2" fill="#F1ECE3" /><rect x="556" y="131" width="19" height="19" rx="2" fill="#F1ECE3" /><rect x="577" y="131" width="19" height="19" rx="2" fill="#F1ECE3" /><rect x="598" y="131" width="19" height="19" rx="2" fill="#F1ECE3" /><rect x="430" y="152" width="19" height="19" rx="2" fill="#F1ECE3" /><rect x="451" y="152" width="19" height="19" rx="2" fill="#F1ECE3" /><rect x="472" y="152" width="19" height="19" rx="2" fill="#F1ECE3" /><rect x="493" y="152" width="19" height="19" rx="2" fill="#F1ECE3" /><rect x="514" y="152" width="19" height="19" rx="2" fill="#F1ECE3" /><rect x="535" y="152" width="19" height="19" rx="2" fill="#F1ECE3" /><rect x="556" y="152" width="19" height="19" rx="2" fill="#F1ECE3" /><rect x="577" y="152" width="19" height="19" rx="2" fill="#F1ECE3" /><rect x="598" y="152" width="19" height="19" rx="2" fill="#F1ECE3" /><rect x="430" y="173" width="19" height="19" rx="2" fill="#F1ECE3" /><rect x="451" y="173" width="19" height="19" rx="2" fill="#F1ECE3" /><rect x="472" y="173" width="19" height="19" rx="2" fill="#F1ECE3" /><rect x="493" y="173" width="19" height="19" rx="2" fill="#F1ECE3" /><rect x="514" y="173" width="19" height="19" rx="2" fill="#F1ECE3" /><rect x="535" y="173" width="19" height="19" rx="2" fill="#F1ECE3" /><rect x="556" y="173" width="19" height="19" rx="2" fill="#F1ECE3" /><rect x="577" y="173" width="19" height="19" rx="2" fill="#F1ECE3" /><rect x="598" y="173" width="19" height="19" rx="2" fill="#F1ECE3" /><rect x="430" y="194" width="19" height="19" rx="2" fill="#F1ECE3" /><rect x="451" y="194" width="19" height="19" rx="2" fill="#F1ECE3" /><rect x="472" y="194" width="19" height="19" rx="2" fill="#F1ECE3" /><rect x="493" y="194" width="19" height="19" rx="2" fill="#F1ECE3" /><rect x="514" y="194" width="19" height="19" rx="2" fill="#F1ECE3" /><rect x="535" y="194" width="19" height="19" rx="2" fill="#F1ECE3" /><rect x="556" y="194" width="19" height="19" rx="2" fill="#F1ECE3" /><rect x="577" y="194" width="19" height="19" rx="2" fill="#F1ECE3" /><rect x="598" y="194" width="19" height="19" rx="2" fill="#F1ECE3" /><rect x="430" y="215" width="19" height="19" rx="2" fill="#F1ECE3" /><rect x="451" y="215" width="19" height="19" rx="2" fill="#F1ECE3" /><rect x="472" y="215" width="19" height="19" rx="2" fill="#F1ECE3" /><rect x="493" y="215" width="19" height="19" rx="2" fill="#F1ECE3" /><rect x="514" y="215" width="19" height="19" rx="2" fill="#F1ECE3" /><rect x="535" y="215" width="19" height="19" rx="2" fill="#F1ECE3" /><rect x="556" y="215" width="19" height="19" rx="2" fill="#F1ECE3" /><rect x="577" y="215" width="19" height="19" rx="2" fill="#F1ECE3" /><rect x="598" y="215" width="19" height="19" rx="2" fill="#F1ECE3" /><rect x="430" y="236" width="19" height="19" rx="2" fill="#F1ECE3" /><rect x="451" y="236" width="19" height="19" rx="2" fill="#F1ECE3" /><rect x="472" y="236" width="19" height="19" rx="2" fill="#F1ECE3" /><rect x="493" y="236" width="19" height="19" rx="2" fill="#F1ECE3" /><rect x="514" y="236" width="19" height="19" rx="2" fill="#F1ECE3" /><rect x="535" y="236" width="19" height="19" rx="2" fill="#F1ECE3" /><rect x="556" y="236" width="19" height="19" rx="2" fill="#F1ECE3" /><rect x="577" y="236" width="19" height="19" rx="2" fill="#F1ECE3" /><rect x="598" y="236" width="19" height="19" rx="2" fill="#F1ECE3" /><rect x="430" y="257" width="19" height="19" rx="2" fill="#F1ECE3" /><rect x="451" y="257" width="19" height="19" rx="2" fill="#F1ECE3" /><rect x="472" y="257" width="19" height="19" rx="2" fill="#F1ECE3" /><rect x="493" y="257" width="19" height="19" rx="2" fill="#F1ECE3" /><rect x="514" y="257" width="19" height="19" rx="2" fill="#F1ECE3" /><rect x="535" y="257" width="19" height="19" rx="2" fill="#F1ECE3" /><rect x="556" y="257" width="19" height="19" rx="2" fill="#F1ECE3" /><rect x="577" y="257" width="19" height="19" rx="2" fill="#F1ECE3" /><rect x="598" y="257" width="19" height="19" rx="2" fill="#F1ECE3" /><rect x="430" y="278" width="19" height="19" rx="2" fill="#F1ECE3" /><rect x="451" y="278" width="19" height="19" rx="2" fill="#F1ECE3" /><rect x="472" y="278" width="19" height="19" rx="2" fill="#F1ECE3" /><rect x="493" y="278" width="19" height="19" rx="2" fill="#F1ECE3" /><rect x="514" y="278" width="19" height="19" rx="2" fill="#F1ECE3" /><rect x="535" y="278" width="19" height="19" rx="2" fill="#F1ECE3" /><rect x="556" y="278" width="19" height="19" rx="2" fill="#F1ECE3" /><rect x="577" y="278" width="19" height="19" rx="2" fill="#F1ECE3" /><rect x="598" y="278" width="19" height="19" rx="2" fill="#F1ECE3" /><text x="430" y="96" class="label" style="fill:#C96442">ViT, self attention</text>
    <rect x="194" y="194" width="19" height="19" rx="2" fill="#C96442" />
    <rect x="514" y="194" width="19" height="19" rx="2" fill="#C96442" />
  </g>
  <g opacity="0"><set attributeName="opacity" to="0" begin="replay.click" fill="freeze" /><animate attributeName="opacity" from="0" to="1" dur="0.4s" begin="1.4s;replay.click+1.4s" fill="freeze" /><rect x="173" y="173" width="19" height="19" rx="2" fill="#C96442" opacity="0.35" /><rect x="194" y="173" width="19" height="19" rx="2" fill="#C96442" opacity="0.35" /><rect x="215" y="173" width="19" height="19" rx="2" fill="#C96442" opacity="0.35" /><rect x="173" y="194" width="19" height="19" rx="2" fill="#C96442" opacity="0.35" /><rect x="215" y="194" width="19" height="19" rx="2" fill="#C96442" opacity="0.35" /><rect x="173" y="215" width="19" height="19" rx="2" fill="#C96442" opacity="0.35" /><rect x="194" y="215" width="19" height="19" rx="2" fill="#C96442" opacity="0.35" /><rect x="215" y="215" width="19" height="19" rx="2" fill="#C96442" opacity="0.35" /></g>
  <g opacity="0"><set attributeName="opacity" to="0" begin="replay.click" fill="freeze" /><set attributeName="opacity" to="1" begin="1.4s;replay.click+1.4s" fill="freeze" /><set attributeName="opacity" to="0" begin="3.0s;replay.click+3.0s" fill="freeze" />
    <text x="110" y="321" class="small">after layer 1, it sees 3 × 3 pixels</text>
  </g>
  <g opacity="0"><set attributeName="opacity" to="0" begin="replay.click" fill="freeze" /><animate attributeName="opacity" from="0" to="1" dur="0.4s" begin="3.0s;replay.click+3.0s" fill="freeze" /><rect x="152" y="152" width="19" height="19" rx="2" fill="#C96442" opacity="0.35" /><rect x="173" y="152" width="19" height="19" rx="2" fill="#C96442" opacity="0.35" /><rect x="194" y="152" width="19" height="19" rx="2" fill="#C96442" opacity="0.35" /><rect x="215" y="152" width="19" height="19" rx="2" fill="#C96442" opacity="0.35" /><rect x="236" y="152" width="19" height="19" rx="2" fill="#C96442" opacity="0.35" /><rect x="152" y="173" width="19" height="19" rx="2" fill="#C96442" opacity="0.35" /><rect x="173" y="173" width="19" height="19" rx="2" fill="#C96442" opacity="0.35" /><rect x="194" y="173" width="19" height="19" rx="2" fill="#C96442" opacity="0.35" /><rect x="215" y="173" width="19" height="19" rx="2" fill="#C96442" opacity="0.35" /><rect x="236" y="173" width="19" height="19" rx="2" fill="#C96442" opacity="0.35" /><rect x="152" y="194" width="19" height="19" rx="2" fill="#C96442" opacity="0.35" /><rect x="173" y="194" width="19" height="19" rx="2" fill="#C96442" opacity="0.35" /><rect x="215" y="194" width="19" height="19" rx="2" fill="#C96442" opacity="0.35" /><rect x="236" y="194" width="19" height="19" rx="2" fill="#C96442" opacity="0.35" /><rect x="152" y="215" width="19" height="19" rx="2" fill="#C96442" opacity="0.35" /><rect x="173" y="215" width="19" height="19" rx="2" fill="#C96442" opacity="0.35" /><rect x="194" y="215" width="19" height="19" rx="2" fill="#C96442" opacity="0.35" /><rect x="215" y="215" width="19" height="19" rx="2" fill="#C96442" opacity="0.35" /><rect x="236" y="215" width="19" height="19" rx="2" fill="#C96442" opacity="0.35" /><rect x="152" y="236" width="19" height="19" rx="2" fill="#C96442" opacity="0.35" /><rect x="173" y="236" width="19" height="19" rx="2" fill="#C96442" opacity="0.35" /><rect x="194" y="236" width="19" height="19" rx="2" fill="#C96442" opacity="0.35" /><rect x="215" y="236" width="19" height="19" rx="2" fill="#C96442" opacity="0.35" /><rect x="236" y="236" width="19" height="19" rx="2" fill="#C96442" opacity="0.35" /></g>
  <g opacity="0"><set attributeName="opacity" to="0" begin="replay.click" fill="freeze" /><set attributeName="opacity" to="1" begin="3.0s;replay.click+3.0s" fill="freeze" /><set attributeName="opacity" to="0" begin="4.6s;replay.click+4.6s" fill="freeze" />
    <text x="110" y="321" class="small">after layer 2, it sees 5 × 5 pixels</text>
  </g>
  <g opacity="0"><set attributeName="opacity" to="0" begin="replay.click" fill="freeze" /><animate attributeName="opacity" from="0" to="1" dur="0.4s" begin="4.6s;replay.click+4.6s" fill="freeze" /><rect x="131" y="131" width="19" height="19" rx="2" fill="#C96442" opacity="0.35" /><rect x="152" y="131" width="19" height="19" rx="2" fill="#C96442" opacity="0.35" /><rect x="173" y="131" width="19" height="19" rx="2" fill="#C96442" opacity="0.35" /><rect x="194" y="131" width="19" height="19" rx="2" fill="#C96442" opacity="0.35" /><rect x="215" y="131" width="19" height="19" rx="2" fill="#C96442" opacity="0.35" /><rect x="236" y="131" width="19" height="19" rx="2" fill="#C96442" opacity="0.35" /><rect x="257" y="131" width="19" height="19" rx="2" fill="#C96442" opacity="0.35" /><rect x="131" y="152" width="19" height="19" rx="2" fill="#C96442" opacity="0.35" /><rect x="152" y="152" width="19" height="19" rx="2" fill="#C96442" opacity="0.35" /><rect x="173" y="152" width="19" height="19" rx="2" fill="#C96442" opacity="0.35" /><rect x="194" y="152" width="19" height="19" rx="2" fill="#C96442" opacity="0.35" /><rect x="215" y="152" width="19" height="19" rx="2" fill="#C96442" opacity="0.35" /><rect x="236" y="152" width="19" height="19" rx="2" fill="#C96442" opacity="0.35" /><rect x="257" y="152" width="19" height="19" rx="2" fill="#C96442" opacity="0.35" /><rect x="131" y="173" width="19" height="19" rx="2" fill="#C96442" opacity="0.35" /><rect x="152" y="173" width="19" height="19" rx="2" fill="#C96442" opacity="0.35" /><rect x="173" y="173" width="19" height="19" rx="2" fill="#C96442" opacity="0.35" /><rect x="194" y="173" width="19" height="19" rx="2" fill="#C96442" opacity="0.35" /><rect x="215" y="173" width="19" height="19" rx="2" fill="#C96442" opacity="0.35" /><rect x="236" y="173" width="19" height="19" rx="2" fill="#C96442" opacity="0.35" /><rect x="257" y="173" width="19" height="19" rx="2" fill="#C96442" opacity="0.35" /><rect x="131" y="194" width="19" height="19" rx="2" fill="#C96442" opacity="0.35" /><rect x="152" y="194" width="19" height="19" rx="2" fill="#C96442" opacity="0.35" /><rect x="173" y="194" width="19" height="19" rx="2" fill="#C96442" opacity="0.35" /><rect x="215" y="194" width="19" height="19" rx="2" fill="#C96442" opacity="0.35" /><rect x="236" y="194" width="19" height="19" rx="2" fill="#C96442" opacity="0.35" /><rect x="257" y="194" width="19" height="19" rx="2" fill="#C96442" opacity="0.35" /><rect x="131" y="215" width="19" height="19" rx="2" fill="#C96442" opacity="0.35" /><rect x="152" y="215" width="19" height="19" rx="2" fill="#C96442" opacity="0.35" /><rect x="173" y="215" width="19" height="19" rx="2" fill="#C96442" opacity="0.35" /><rect x="194" y="215" width="19" height="19" rx="2" fill="#C96442" opacity="0.35" /><rect x="215" y="215" width="19" height="19" rx="2" fill="#C96442" opacity="0.35" /><rect x="236" y="215" width="19" height="19" rx="2" fill="#C96442" opacity="0.35" /><rect x="257" y="215" width="19" height="19" rx="2" fill="#C96442" opacity="0.35" /><rect x="131" y="236" width="19" height="19" rx="2" fill="#C96442" opacity="0.35" /><rect x="152" y="236" width="19" height="19" rx="2" fill="#C96442" opacity="0.35" /><rect x="173" y="236" width="19" height="19" rx="2" fill="#C96442" opacity="0.35" /><rect x="194" y="236" width="19" height="19" rx="2" fill="#C96442" opacity="0.35" /><rect x="215" y="236" width="19" height="19" rx="2" fill="#C96442" opacity="0.35" /><rect x="236" y="236" width="19" height="19" rx="2" fill="#C96442" opacity="0.35" /><rect x="257" y="236" width="19" height="19" rx="2" fill="#C96442" opacity="0.35" /><rect x="131" y="257" width="19" height="19" rx="2" fill="#C96442" opacity="0.35" /><rect x="152" y="257" width="19" height="19" rx="2" fill="#C96442" opacity="0.35" /><rect x="173" y="257" width="19" height="19" rx="2" fill="#C96442" opacity="0.35" /><rect x="194" y="257" width="19" height="19" rx="2" fill="#C96442" opacity="0.35" /><rect x="215" y="257" width="19" height="19" rx="2" fill="#C96442" opacity="0.35" /><rect x="236" y="257" width="19" height="19" rx="2" fill="#C96442" opacity="0.35" /><rect x="257" y="257" width="19" height="19" rx="2" fill="#C96442" opacity="0.35" /></g>
  <g opacity="0"><set attributeName="opacity" to="0" begin="replay.click" fill="freeze" /><set attributeName="opacity" to="1" begin="4.6s;replay.click+4.6s" fill="freeze" />
    <text x="110" y="321" class="small">after layer 3, it sees 7 × 7 pixels</text>
  </g>
  <g opacity="0"><set attributeName="opacity" to="0" begin="replay.click" fill="freeze" /><animate attributeName="opacity" from="0" to="1" dur="0.6s" begin="1.4s;replay.click+1.4s" fill="freeze" /><rect x="430" y="110" width="19" height="19" rx="2" fill="#C96442" opacity="0.35" /><rect x="451" y="110" width="19" height="19" rx="2" fill="#C96442" opacity="0.35" /><rect x="472" y="110" width="19" height="19" rx="2" fill="#C96442" opacity="0.35" /><rect x="493" y="110" width="19" height="19" rx="2" fill="#C96442" opacity="0.35" /><rect x="514" y="110" width="19" height="19" rx="2" fill="#C96442" opacity="0.35" /><rect x="535" y="110" width="19" height="19" rx="2" fill="#C96442" opacity="0.35" /><rect x="556" y="110" width="19" height="19" rx="2" fill="#C96442" opacity="0.35" /><rect x="577" y="110" width="19" height="19" rx="2" fill="#C96442" opacity="0.35" /><rect x="598" y="110" width="19" height="19" rx="2" fill="#C96442" opacity="0.35" /><rect x="430" y="131" width="19" height="19" rx="2" fill="#C96442" opacity="0.35" /><rect x="451" y="131" width="19" height="19" rx="2" fill="#C96442" opacity="0.35" /><rect x="472" y="131" width="19" height="19" rx="2" fill="#C96442" opacity="0.35" /><rect x="493" y="131" width="19" height="19" rx="2" fill="#C96442" opacity="0.35" /><rect x="514" y="131" width="19" height="19" rx="2" fill="#C96442" opacity="0.35" /><rect x="535" y="131" width="19" height="19" rx="2" fill="#C96442" opacity="0.35" /><rect x="556" y="131" width="19" height="19" rx="2" fill="#C96442" opacity="0.35" /><rect x="577" y="131" width="19" height="19" rx="2" fill="#C96442" opacity="0.35" /><rect x="598" y="131" width="19" height="19" rx="2" fill="#C96442" opacity="0.35" /><rect x="430" y="152" width="19" height="19" rx="2" fill="#C96442" opacity="0.35" /><rect x="451" y="152" width="19" height="19" rx="2" fill="#C96442" opacity="0.35" /><rect x="472" y="152" width="19" height="19" rx="2" fill="#C96442" opacity="0.35" /><rect x="493" y="152" width="19" height="19" rx="2" fill="#C96442" opacity="0.35" /><rect x="514" y="152" width="19" height="19" rx="2" fill="#C96442" opacity="0.35" /><rect x="535" y="152" width="19" height="19" rx="2" fill="#C96442" opacity="0.35" /><rect x="556" y="152" width="19" height="19" rx="2" fill="#C96442" opacity="0.35" /><rect x="577" y="152" width="19" height="19" rx="2" fill="#C96442" opacity="0.35" /><rect x="598" y="152" width="19" height="19" rx="2" fill="#C96442" opacity="0.35" /><rect x="430" y="173" width="19" height="19" rx="2" fill="#C96442" opacity="0.35" /><rect x="451" y="173" width="19" height="19" rx="2" fill="#C96442" opacity="0.35" /><rect x="472" y="173" width="19" height="19" rx="2" fill="#C96442" opacity="0.35" /><rect x="493" y="173" width="19" height="19" rx="2" fill="#C96442" opacity="0.35" /><rect x="514" y="173" width="19" height="19" rx="2" fill="#C96442" opacity="0.35" /><rect x="535" y="173" width="19" height="19" rx="2" fill="#C96442" opacity="0.35" /><rect x="556" y="173" width="19" height="19" rx="2" fill="#C96442" opacity="0.35" /><rect x="577" y="173" width="19" height="19" rx="2" fill="#C96442" opacity="0.35" /><rect x="598" y="173" width="19" height="19" rx="2" fill="#C96442" opacity="0.35" /><rect x="430" y="194" width="19" height="19" rx="2" fill="#C96442" opacity="0.35" /><rect x="451" y="194" width="19" height="19" rx="2" fill="#C96442" opacity="0.35" /><rect x="472" y="194" width="19" height="19" rx="2" fill="#C96442" opacity="0.35" /><rect x="493" y="194" width="19" height="19" rx="2" fill="#C96442" opacity="0.35" /><rect x="535" y="194" width="19" height="19" rx="2" fill="#C96442" opacity="0.35" /><rect x="556" y="194" width="19" height="19" rx="2" fill="#C96442" opacity="0.35" /><rect x="577" y="194" width="19" height="19" rx="2" fill="#C96442" opacity="0.35" /><rect x="598" y="194" width="19" height="19" rx="2" fill="#C96442" opacity="0.35" /><rect x="430" y="215" width="19" height="19" rx="2" fill="#C96442" opacity="0.35" /><rect x="451" y="215" width="19" height="19" rx="2" fill="#C96442" opacity="0.35" /><rect x="472" y="215" width="19" height="19" rx="2" fill="#C96442" opacity="0.35" /><rect x="493" y="215" width="19" height="19" rx="2" fill="#C96442" opacity="0.35" /><rect x="514" y="215" width="19" height="19" rx="2" fill="#C96442" opacity="0.35" /><rect x="535" y="215" width="19" height="19" rx="2" fill="#C96442" opacity="0.35" /><rect x="556" y="215" width="19" height="19" rx="2" fill="#C96442" opacity="0.35" /><rect x="577" y="215" width="19" height="19" rx="2" fill="#C96442" opacity="0.35" /><rect x="598" y="215" width="19" height="19" rx="2" fill="#C96442" opacity="0.35" /><rect x="430" y="236" width="19" height="19" rx="2" fill="#C96442" opacity="0.35" /><rect x="451" y="236" width="19" height="19" rx="2" fill="#C96442" opacity="0.35" /><rect x="472" y="236" width="19" height="19" rx="2" fill="#C96442" opacity="0.35" /><rect x="493" y="236" width="19" height="19" rx="2" fill="#C96442" opacity="0.35" /><rect x="514" y="236" width="19" height="19" rx="2" fill="#C96442" opacity="0.35" /><rect x="535" y="236" width="19" height="19" rx="2" fill="#C96442" opacity="0.35" /><rect x="556" y="236" width="19" height="19" rx="2" fill="#C96442" opacity="0.35" /><rect x="577" y="236" width="19" height="19" rx="2" fill="#C96442" opacity="0.35" /><rect x="598" y="236" width="19" height="19" rx="2" fill="#C96442" opacity="0.35" /><rect x="430" y="257" width="19" height="19" rx="2" fill="#C96442" opacity="0.35" /><rect x="451" y="257" width="19" height="19" rx="2" fill="#C96442" opacity="0.35" /><rect x="472" y="257" width="19" height="19" rx="2" fill="#C96442" opacity="0.35" /><rect x="493" y="257" width="19" height="19" rx="2" fill="#C96442" opacity="0.35" /><rect x="514" y="257" width="19" height="19" rx="2" fill="#C96442" opacity="0.35" /><rect x="535" y="257" width="19" height="19" rx="2" fill="#C96442" opacity="0.35" /><rect x="556" y="257" width="19" height="19" rx="2" fill="#C96442" opacity="0.35" /><rect x="577" y="257" width="19" height="19" rx="2" fill="#C96442" opacity="0.35" /><rect x="598" y="257" width="19" height="19" rx="2" fill="#C96442" opacity="0.35" /><rect x="430" y="278" width="19" height="19" rx="2" fill="#C96442" opacity="0.35" /><rect x="451" y="278" width="19" height="19" rx="2" fill="#C96442" opacity="0.35" /><rect x="472" y="278" width="19" height="19" rx="2" fill="#C96442" opacity="0.35" /><rect x="493" y="278" width="19" height="19" rx="2" fill="#C96442" opacity="0.35" /><rect x="514" y="278" width="19" height="19" rx="2" fill="#C96442" opacity="0.35" /><rect x="535" y="278" width="19" height="19" rx="2" fill="#C96442" opacity="0.35" /><rect x="556" y="278" width="19" height="19" rx="2" fill="#C96442" opacity="0.35" /><rect x="577" y="278" width="19" height="19" rx="2" fill="#C96442" opacity="0.35" /><rect x="598" y="278" width="19" height="19" rx="2" fill="#C96442" opacity="0.35" />
    <text x="430" y="321" class="small" style="fill:#C96442">after layer 1, it sees every patch</text>
  </g>
  <g opacity="0"><set attributeName="opacity" to="0" begin="replay.click" fill="freeze" /><animate attributeName="opacity" from="0" to="1" dur="0.8s" begin="6.200000000000001s;replay.click+6.200000000000001s" fill="freeze" />
    <text x="110" y="344" class="tick">a CNN builds locality in by hand, which is a strong head start when data is short</text>
    <text x="110" y="364" class="tick">a ViT assumes nothing and has to learn it, which pays off once the training set is huge</text>
    <text x="110" y="386" class="formula">the grid stands for pixels on the left and patches on the right</text>
  </g>
<g id="replay" style="cursor:pointer">
  <title>replay</title>
  <circle cx="694" cy="24" r="13" fill="#C96442" fill-opacity="0.10" stroke="#C96442" stroke-width="1.5" />
  <path d="M 700 20.5 A 7 7 0 1 0 701 26" fill="none" stroke="#C96442" stroke-width="1.8" stroke-linecap="round" />
  <path d="M 697 16.5 L 701.5 20.5 L 696.5 23" fill="none" stroke="#C96442" stroke-width="1.8" stroke-linecap="round" stroke-linejoin="round" />
</g></svg>